<?xml version="1.0" standalone="no"?>
<!DOCTYPE svg PUBLIC "-//W3C//DTD SVG 1.1//EN" "http://www.w3.org/Graphics/SVG/1.1/DTD/svg11.dtd" >
<svg xmlns="http://www.w3.org/2000/svg">
<metadata></metadata>
<defs>
<font id="nobel-blackregular" horiz-adv-x="1167" >
<font-face units-per-em="2048" ascent="1638" descent="-410" />
<missing-glyph horiz-adv-x="542" />
<glyph horiz-adv-x="2048" />
<glyph horiz-adv-x="2048" />
<glyph unicode="&#xd;" horiz-adv-x="1024" />
<glyph unicode=" "  horiz-adv-x="542" />
<glyph unicode="&#x09;" horiz-adv-x="542" />
<glyph unicode="&#xa0;" horiz-adv-x="542" />
<glyph unicode="!" horiz-adv-x="749" d="M133 0h483v418h-483v-418zM133 1071l74 -524h334l75 524v424h-483v-424z" />
<glyph unicode="&#x22;" horiz-adv-x="1208" d="M84 1133l86 -383h274l86 383v362h-446v-362zM678 1133l86 -383h274l86 383v362h-446v-362z" />
<glyph unicode="#" horiz-adv-x="1404" d="M113 260h163l-22 -260h256l22 260h254l-22 -260h256l22 260h250v361h-217l23 253h194v361h-164l23 260h-256l-23 -260h-254l23 260h-256l-23 -260h-249v-361h217l-23 -253h-194v-361zM555 610l27 275h268l-27 -275h-268z" />
<glyph unicode="$" horiz-adv-x="1515" d="M47 188q147 -86 285.5 -130t285.5 -56v-207h271v207q127 12 232.5 47t180 93.5t116.5 138.5t42 180q0 109 -30.5 182.5t-100 122.5t-183.5 81t-278 54v268q98 -14 193.5 -49t181.5 -82l156 301q-63 35 -124 61.5t-122 45t-125.5 31t-138.5 18.5v143h-271v-145 q-117 -12 -217 -47t-173.5 -92.5t-114.5 -138t-41 -187.5q0 -104 30.5 -179t98 -128t176 -88t262.5 -60v-247q-104 14 -209.5 50t-208.5 99zM475 1059q0 45 38 73.5t126 38.5v-237q-100 20 -132 49t-32 76zM868 322v219q63 -10 100.5 -20.5t56.5 -24t25.5 -30t6.5 -36.5 q0 -43 -42 -70.5t-147 -37.5z" />
<glyph unicode="%" horiz-adv-x="1761" d="M35 1112q0 -88 28.5 -163t77.5 -129t117 -84.5t145 -30.5q78 0 146.5 30.5t120 84.5t81 129t29.5 163t-28.5 163t-77.5 129t-117 85t-145 31q-78 0 -146.5 -31t-120 -85t-81 -129t-29.5 -163zM215 0h309l1022 1495h-309zM301 1112q0 92 26.5 147.5t80.5 55.5 q53 0 79.5 -55.5t26.5 -147.5t-26.5 -147.5t-79.5 -55.5t-80 55.5t-27 147.5zM981 383q0 -88 28.5 -163t78 -129t117 -85t145.5 -31t146.5 31t119.5 85t80.5 129t29.5 163t-28.5 163t-77.5 129t-116.5 85t-145.5 31t-146.5 -31t-120 -85t-81 -129t-29.5 -163zM1247 383 q0 92 26.5 147.5t80.5 55.5q53 0 79.5 -55.5t26.5 -147.5t-26.5 -147.5t-79.5 -55.5t-80 55.5t-27 147.5z" />
<glyph unicode="&#x26;" horiz-adv-x="1505" d="M31 418q0 -111 39 -193t110.5 -135t171 -79.5t221.5 -26.5q109 0 208.5 26.5t191.5 71.5l67 -82h467l-233 289q63 55 118.5 113.5t102.5 117.5l-256 260q-41 -49 -89 -105.5t-101 -109.5l-195 240q123 72 193.5 161t70.5 210q0 86 -31.5 150.5t-89 107.5t-137.5 64.5 t-174 21.5q-106 0 -190 -28t-142.5 -76t-89.5 -112.5t-31 -138.5q0 -156 103 -282l20 -25q-88 -43 -149.5 -89t-100 -99.5t-57 -114.5t-18.5 -137zM479 477q0 86 62 148l221 -279q-47 -18 -88 -18q-96 0 -145.5 42t-49.5 107zM598 1188q0 35 26.5 53.5t61.5 18.5 q41 0 66.5 -28t25.5 -67t-21.5 -76.5t-72.5 -74.5l-27 33q-33 41 -46 70.5t-13 70.5z" />
<glyph unicode="'" horiz-adv-x="614" d="M84 1133l86 -383h274l86 383v362h-446v-362z" />
<glyph unicode="(" horiz-adv-x="905" d="M82 575q0 -205 61.5 -366.5t166 -280t241.5 -192.5t289 -103v310q-135 106 -196.5 256.5t-61.5 378.5q0 113 15 206t46 169.5t80 140t117 116.5v310q-152 -29 -289 -104t-241.5 -193.5t-166 -280.5t-61.5 -367z" />
<glyph unicode=")" horiz-adv-x="905" d="M66 -57v-310q152 29 289 103t241 192.5t165.5 280t61.5 366.5t-61.5 367t-165.5 280.5t-241.5 193.5t-288.5 104v-310q68 -53 116.5 -116.5t79.5 -140t46.5 -170t15.5 -205.5q0 -227 -61.5 -378t-196.5 -257z" />
<glyph unicode="*" horiz-adv-x="946" d="M33 1126l229 -133l-106 -243l118 -84l199 174l199 -174l119 84l-107 243l229 133l-45 140l-264 -27l-61 256h-140l-61 -256l-264 27z" />
<glyph unicode="+" horiz-adv-x="1150" d="M72 483h305v-309h397v309h305v389h-305v310h-397v-310h-305v-389z" />
<glyph unicode="," horiz-adv-x="614" d="M10 -166l266 -162q131 88 197 204t66 274v305h-463v-363q0 -78 -14.5 -141.5t-51.5 -116.5z" />
<glyph unicode="-" horiz-adv-x="851" d="M57 395h738v393h-738v-393z" />
<glyph unicode="." horiz-adv-x="614" d="M76 0h463v455h-463v-455z" />
<glyph unicode="/" horiz-adv-x="1044" d="M39 0h453l514 1495h-447z" />
<glyph unicode="0" horiz-adv-x="1482" d="M61 748q0 -160 46.5 -300.5t134.5 -246t214 -166t285 -60.5q160 0 286 60.5t214 166t134 246t46 300.5t-46 300t-134 245.5t-214 166t-286 60.5t-285.5 -60.5t-213.5 -166t-134.5 -246t-46.5 -299.5zM541 748q0 186 51 288.5t149 102.5t149.5 -102.5t51.5 -288.5 t-51 -289t-150 -103q-98 0 -149 102.5t-51 289.5z" />
<glyph unicode="1" horiz-adv-x="954" d="M37 829q96 6 177 30t134 71v-930h481v1495h-393q-37 -84 -80 -137t-92 -87t-106.5 -51.5t-120.5 -25.5v-365z" />
<glyph unicode="2" horiz-adv-x="1265" d="M12 0h1178v379h-404l218 250q92 104 142 207.5t50 234.5q0 100 -37 183t-109.5 142.5t-178 91.5t-242.5 32q-129 0 -234.5 -35t-180.5 -105.5t-116 -178t-41 -253.5v-24h435v34q0 98 34.5 138.5t89.5 40.5q49 0 78 -30t29 -87q0 -45 -25.5 -93t-70.5 -108z" />
<glyph unicode="3" horiz-adv-x="1228" d="M12 219q94 -111 245 -177.5t327 -66.5q131 0 239.5 34t186 97.5t119.5 153.5t42 201q0 133 -65.5 213t-163.5 121q37 25 72 52t61.5 65t43 87.5t16.5 114.5q0 98 -45.5 174t-120 127t-175 78t-210.5 27q-147 0 -271.5 -43t-238.5 -140l194 -307q125 119 244 119 q59 0 105.5 -28.5t46.5 -76.5q0 -59 -45.5 -89.5t-118.5 -30.5h-86v-320h88q199 0 198 -129q0 -63 -46 -96t-115 -33q-78 0 -157 41t-144 113z" />
<glyph unicode="4" horiz-adv-x="1351" d="M20 313h680v-313h451v313h172v318h-172v864h-477l-654 -907v-275zM430 631l270 381v-381h-270z" />
<glyph unicode="5" horiz-adv-x="1249" d="M23 193q102 -94 236 -155t329 -61q137 0 249.5 41t193.5 114t125 174t44 222q0 131 -41 222.5t-108.5 148.5t-154.5 84t-179 27q-66 0 -117 -14.5t-111 -43.5l17 174h588v369h-928l-80 -801l223 -116q63 47 119.5 70.5t122.5 23.5q86 0 136 -36t50 -112q0 -88 -54 -131 t-142 -43q-74 0 -151 39t-146 98z" />
<glyph unicode="6" horiz-adv-x="1384" d="M57 602q0 -145 46.5 -261t130 -197t202.5 -125t264 -44q131 0 249 38t206 107.5t139.5 169t51.5 224.5q0 117 -43 207t-112 151.5t-158 92t-181 30.5q-84 0 -142.5 -16t-119.5 -55q25 43 71 92t107 95t133 88t143 73l-317 280q-135 -74 -257 -175t-214 -223t-145.5 -262 t-53.5 -290zM524 504q0 70 48.5 121t125.5 51q76 0 126 -50t50 -122q0 -78 -49 -128t-127 -50q-80 0 -127 50t-47 128z" />
<glyph unicode="7" horiz-adv-x="1357" d="M98 1110h574l-547 -1110h534l695 1495h-1256v-385z" />
<glyph unicode="8" horiz-adv-x="1372" d="M49 432q0 -109 48 -192.5t133 -143t202 -90.5t254 -31t254 31t202 90.5t133 143t48 192.5q0 137 -68.5 227.5t-189.5 145.5q86 53 138 120.5t52 182.5q0 88 -37.5 164t-110.5 131t-178.5 86t-242.5 31t-242.5 -31t-178 -86t-110.5 -131t-38 -164q0 -115 52 -182.5 t138 -120.5q-121 -55 -189.5 -145.5t-68.5 -227.5zM481 473q0 74 58.5 114t146.5 40t146.5 -40t58.5 -114q0 -72 -58.5 -119t-146.5 -47t-146.5 47t-58.5 119zM539 1073q0 59 41 94t106 35q66 0 107 -35t41 -94q0 -66 -39 -102.5t-109 -36.5t-108.5 37t-38.5 102z" />
<glyph unicode="9" horiz-adv-x="1384" d="M39 981q0 -117 43 -207t111.5 -151.5t157.5 -92t181 -30.5q84 0 142.5 15t120.5 56q-25 -43 -71 -92t-107.5 -95t-133 -88t-143.5 -73l317 -280q135 74 257 175t214.5 223t145.5 261t53 291q0 143 -46 260t-130 198t-203 125t-264 44q-131 0 -249 -38t-206 -107.5 t-139 -169t-51 -224.5zM510 991q0 78 49 128t127 50q80 0 127 -50t47 -128q0 -70 -48 -121t-126 -51q-76 0 -126 50.5t-50 121.5z" />
<glyph unicode=":" horiz-adv-x="614" d="M76 0h463v408h-463v-408zM76 537h463v407h-463v-407z" />
<glyph unicode=";" horiz-adv-x="614" d="M10 -166l266 -162q131 88 197 204t66 274v258h-463v-316q0 -78 -14.5 -141.5t-51.5 -116.5zM76 537h463v407h-463v-407z" />
<glyph unicode="&#x3c;" horiz-adv-x="983" d="M88 496l770 -400v393l-391 177l391 174v389l-770 -395v-338z" />
<glyph unicode="=" horiz-adv-x="1150" d="M92 242h967v358h-967v-358zM92 764h967v358h-967v-358z" />
<glyph unicode="&#x3e;" horiz-adv-x="983" d="M125 96l770 396v337l-770 400v-393l391 -177l-391 -174v-389z" />
<glyph unicode="?" horiz-adv-x="1024" d="M4 1331l209 -336q72 72 131 106t98 34q70 0 70 -56q0 -14 -3 -26.5t-15.5 -32t-35 -47t-61.5 -72.5q-66 -76 -91 -153.5t-25 -172.5v-28h409v8q0 59 31 110.5t102 131.5q47 51 80 94t54.5 84t30.5 86t9 100q0 166 -124.5 261.5t-352.5 95.5q-166 0 -286.5 -49.5 t-229.5 -137.5zM244 0h483v418h-483v-418z" />
<glyph unicode="@" horiz-adv-x="1728" d="M92 748q0 -160 60.5 -300.5t166 -246t246 -166t299.5 -60.5q72 0 149 14.5t163 53.5l-41 100q-72 -35 -141.5 -46t-127.5 -11q-133 0 -249.5 48t-202.5 135t-135.5 207t-49.5 263t47.5 264t132.5 209t201.5 136.5t255.5 48.5q156 0 275 -45t199.5 -126t122.5 -190.5 t42 -238.5q0 -143 -37.5 -215t-101.5 -72q-84 0 -84 115v245q0 178 -94 255t-275 77q-72 0 -130 -6t-107 -17.5t-91 -28.5t-81 -38l80 -211q53 31 113.5 47.5t113.5 16.5q59 0 84 -18.5t25 -55.5v-10q-236 -10 -358 -85t-122 -227q0 -113 76 -174t189 -61q90 0 158.5 30.5 t117.5 77.5q47 -47 115.5 -77.5t160.5 -30.5q76 0 144.5 29.5t121 88t83 147.5t30.5 210q0 147 -55 276t-155.5 226.5t-244 153t-317.5 55.5q-160 0 -300 -60.5t-245.5 -166t-166 -246t-60.5 -299.5zM774 616q0 45 34 71t116 28v-129q-31 -37 -82 -37q-27 0 -47.5 17.5 t-20.5 49.5z" />
<glyph unicode="A" horiz-adv-x="1597" d="M10 0h477l80 272h439l79 -272h502l-518 1495h-541zM674 633l112 379l113 -379h-225z" />
<glyph unicode="B" horiz-adv-x="1413" d="M121 0h702q125 0 227.5 28.5t173 83t109.5 133.5t39 179q0 63 -23.5 122.5t-63.5 107.5t-96 79t-120 41q98 37 161.5 122t63.5 198q0 94 -36.5 168.5t-105.5 126t-165 79t-213 27.5h-653v-1495zM588 334v278h151q92 0 141.5 -32.5t49.5 -100.5q0 -70 -43 -107.5 t-148 -37.5h-151zM588 883v278h76q98 0 151 -28.5t53 -104.5q0 -145 -204 -145h-76z" />
<glyph unicode="C" horiz-adv-x="1449" d="M59 741q0 -168 58.5 -308t162 -241.5t247 -159t313.5 -57.5q98 0 179 15.5t149.5 44t127 67.5t111.5 86l-240 326q-66 -61 -141.5 -96t-159.5 -35q-74 0 -133 27.5t-100 77t-62.5 118t-21.5 148.5t21.5 146.5t60.5 113.5t92 72.5t115 25.5q98 0 163.5 -39t128.5 -100 l246 334q-49 41 -103 79.5t-118.5 68.5t-140.5 47.5t-166 17.5q-170 0 -313.5 -58.5t-250 -163t-166 -247t-59.5 -310.5z" />
<glyph unicode="D" horiz-adv-x="1585" d="M121 0h557q172 0 325.5 48t270.5 142.5t184.5 235t67.5 324.5q0 180 -63.5 319t-176 234.5t-268.5 143.5t-340 48h-557v-1495zM600 391v713h78q160 0 258 -92t98 -262q0 -162 -93 -260.5t-263 -98.5h-78z" />
<glyph unicode="E" horiz-adv-x="1146" d="M121 0h934v377h-455v182h365v373h-365v186h434v377h-913v-1495z" />
<glyph unicode="F" horiz-adv-x="1087" d="M121 0h479v526h369v377h-369v211h399v381h-878v-1495z" />
<glyph unicode="G" horiz-adv-x="1665" d="M59 741q0 -168 58.5 -308t162 -241.5t247 -159t313.5 -57.5q174 0 317 54.5t244.5 165t157 278.5t55.5 395h-801v-354h330q-35 -74 -101.5 -120t-177.5 -46q-147 0 -231 100.5t-84 305.5q0 80 21.5 146.5t60.5 113.5t92 72.5t115 25.5q98 0 163.5 -34t128.5 -95l300 299 q-45 49 -99.5 92t-125 76t-159 51.5t-198.5 18.5q-170 0 -313.5 -58.5t-250 -163t-166 -247t-59.5 -310.5z" />
<glyph unicode="H" horiz-adv-x="1617" d="M121 0h500v522h376v-522h500v1495h-500v-551h-376v551h-500v-1495z" />
<glyph unicode="I" horiz-adv-x="749" d="M125 0h500v1495h-500v-1495z" />
<glyph unicode="J" horiz-adv-x="999" d="M51 0h191q150 0 270.5 36t204.5 109.5t130 184t46 262.5v903h-500v-827q0 -152 -55 -215.5t-191 -63.5h-96v-389z" />
<glyph unicode="K" horiz-adv-x="1560" d="M121 0h500v467l63 76l305 -543h574l-533 893l506 602h-584l-331 -436v436h-500v-1495z" />
<glyph unicode="L" horiz-adv-x="1148" d="M121 0h969v381h-490v1114h-479v-1495z" />
<glyph unicode="M" horiz-adv-x="1908" d="M121 0h471v729l237 -434h228l231 434v-729h500v1495h-526l-316 -596l-340 596h-485v-1495z" />
<glyph unicode="N" horiz-adv-x="1658" d="M121 0h471v690l559 -690h387v1495h-471v-641l-518 641h-428v-1495z" />
<glyph unicode="O" horiz-adv-x="1728" d="M59 745q0 -168 59.5 -309t166 -243.5t254 -160t323.5 -57.5t323.5 58.5t255 162t168 245t60.5 309.5t-59.5 309t-166 243.5t-254 160t-323.5 57.5t-323.5 -58.5t-255 -162t-168 -245t-60.5 -309.5zM549 750q0 80 23.5 148.5t64.5 118.5t99.5 77.5t125.5 27.5 q68 0 126.5 -28.5t101.5 -78.5t66.5 -120t23.5 -150t-23.5 -148.5t-64.5 -118.5t-99.5 -77.5t-126.5 -27.5t-126 28.5t-101 78.5t-66.5 120t-23.5 150z" />
<glyph unicode="P" horiz-adv-x="1355" d="M121 0h489v512h160q129 0 231.5 35t175 100.5t110.5 158.5t38 210q0 115 -39 204t-111.5 150.5t-175 93t-229.5 31.5h-649v-1495zM606 877v262h99q78 0 117.5 -28.5t39.5 -100.5q0 -133 -157 -133h-99z" />
<glyph unicode="Q" horiz-adv-x="1728" d="M59 745q0 -168 59.5 -309t166 -243.5t254 -160t323.5 -57.5q117 0 219.5 26t192.5 73q63 -39 126.5 -66.5t123.5 -44.5l184 318q-76 12 -158 49q57 90 88 195.5t31 224.5q0 168 -59.5 309t-166 243.5t-254 160t-323.5 57.5t-323.5 -58.5t-255 -162t-168 -245 t-60.5 -309.5zM549 739q0 82 23.5 153t66.5 122t102.5 79.5t130.5 28.5q70 0 130.5 -29.5t104.5 -80.5t68.5 -123t24.5 -154q0 -84 -24 -153q-20 23 -38 46t-32 46l-234 -203q27 -57 72 -111q-27 -8 -67 -8q-72 0 -131.5 30t-103.5 81t-68.5 121.5t-24.5 154.5z" />
<glyph unicode="R" horiz-adv-x="1396" d="M121 0h483v530l275 -530h534l-356 618q113 49 183.5 158t70.5 258q0 225 -148.5 343t-417.5 118h-624v-1495zM600 852v287h80q86 0 130 -32t44 -110q0 -145 -174 -145h-80z" />
<glyph unicode="S" horiz-adv-x="1277" d="M31 184q104 -92 256.5 -150.5t337.5 -58.5q135 0 243.5 36t184 101.5t116.5 157.5t41 205q0 104 -27.5 179t-79.5 128.5t-131 90t-179 65.5q-74 20 -119 37.5t-70.5 33t-34 30t-8.5 32.5q0 33 28.5 58.5t100.5 25.5q84 0 157 -28.5t150 -84.5l197 326q-37 31 -90 57.5 t-116.5 48t-134.5 34t-144 12.5q-135 0 -249 -33t-196 -95.5t-127 -155.5t-45 -214q0 -92 25.5 -161.5t77 -122t128 -92.5t179.5 -71q68 -20 114 -36.5t73.5 -34t39.5 -36.5t12 -46q0 -39 -34.5 -60.5t-88.5 -21.5q-98 0 -191 39t-198 123z" />
<glyph unicode="T" horiz-adv-x="1159" d="M43 1114h297v-1114h479v1114h297v381h-1073v-381z" />
<glyph unicode="U" horiz-adv-x="1662" d="M106 688q0 -188 55.5 -322.5t153 -221.5t229.5 -128t287 -41q156 0 288 41t229.5 128t152.5 221.5t55 322.5v807h-499v-858q0 -123 -60.5 -193.5t-165.5 -70.5q-104 0 -164.5 70.5t-60.5 193.5v858h-500v-807z" />
<glyph unicode="V" horiz-adv-x="1495" d="M10 1495l488 -1495h499l488 1495h-488l-237 -930l-238 930h-512z" />
<glyph unicode="W" horiz-adv-x="2097" d="M14 1495l373 -1495h498l164 815l163 -815h498l373 1495h-498l-123 -803l-149 803h-488l-149 -803l-123 803h-539z" />
<glyph unicode="X" horiz-adv-x="1525" d="M12 0h537l211 381l207 -381h546l-456 801l403 694h-536l-160 -291l-152 291h-546l401 -715z" />
<glyph unicode="Y" horiz-adv-x="1482" d="M-6 1495l508 -936v-559h479v559l508 936h-510l-227 -485l-228 485h-530z" />
<glyph unicode="Z" horiz-adv-x="1437" d="M45 0h1301v371h-586l592 1124h-1233v-371h518z" />
<glyph unicode="[" horiz-adv-x="962" d="M133 -367h725v287h-262v1288h262v287h-725v-1862z" />
<glyph unicode="\" horiz-adv-x="1044" d="M39 1495l520 -1495h447l-514 1495h-453z" />
<glyph unicode="]" horiz-adv-x="962" d="M104 -80v-287h725v1862h-725v-287h263v-1288h-263z" />
<glyph unicode="^" horiz-adv-x="1380" d="M51 758h432l207 368l207 -368h432l-422 737h-434z" />
<glyph unicode="_" horiz-adv-x="1024" d="M-6 -129v-225h1036v225h-1036z" />
<glyph unicode="`" horiz-adv-x="1024" d="M221 1382l193 -362h278l-133 362h-338z" />
<glyph unicode="a" d="M39 248q0 -63 24.5 -111.5t66.5 -82.5t97.5 -51t116.5 -17q102 0 170 25.5t123 72.5v-84h455v582q0 199 -118 283.5t-345 84.5q-90 0 -163 -7t-133.5 -19.5t-113.5 -31t-102 -42.5l100 -234q66 35 142.5 52.5t142.5 17.5q76 0 105.5 -20.5t29.5 -61.5v-12 q-295 -10 -446.5 -94t-151.5 -250zM455 299q0 49 43 78t145 33v-146q-18 -18 -45 -29.5t-57 -11.5q-35 0 -60.5 20.5t-25.5 55.5z" />
<glyph unicode="b" horiz-adv-x="1280" d="M86 0h459v96q53 -53 117.5 -82.5t150.5 -29.5q96 0 175 39.5t134.5 107.5t86 157t30.5 185q0 98 -30.5 187.5t-86 156t-134.5 105.5t-175 39q-86 0 -150.5 -30t-117.5 -83v647h-459v-1495zM522 469q0 70 40 119t108 49q63 0 104 -49t41 -119t-41 -116t-104 -46 q-66 0 -107 46t-41 116z" />
<glyph unicode="c" horiz-adv-x="995" d="M41 469q0 -113 42 -204t115.5 -155.5t173 -99.5t212.5 -35q139 0 236 55.5t165 141.5l-266 213q-31 -37 -61.5 -56.5t-71.5 -19.5q-59 0 -95 45t-36 115q0 72 35.5 119t95.5 47q41 0 71.5 -20.5t53.5 -55.5l264 229q-66 82 -158 131.5t-233 49.5q-111 0 -209.5 -37 t-173 -103.5t-117.5 -157.5t-43 -202z" />
<glyph unicode="d" horiz-adv-x="1280" d="M41 471q0 -98 30.5 -187t86 -156t134.5 -105.5t175 -38.5q86 0 150.5 29.5t117.5 82.5v-96h459v1495h-459v-647q-53 53 -117.5 83t-150.5 30q-96 0 -175 -40t-134.5 -108t-86 -157t-30.5 -185zM465 475q0 70 41 116t104 46q66 0 107 -46t41 -116t-40 -119t-108 -49 q-63 0 -104 49.5t-41 118.5z" />
<glyph unicode="e" horiz-adv-x="1105" d="M41 469q0 -113 39 -204t111.5 -155.5t176 -99.5t234.5 -35q145 0 262 42t205 114l-147 213q-131 -94 -283 -94q-66 0 -121 31.5t-80 109.5h623q0 143 -37 252t-105.5 181.5t-165 108.5t-214.5 36q-109 0 -200 -37t-157.5 -103.5t-103.5 -157.5t-37 -202zM430 578 q0 80 37 116.5t78 36.5q53 0 86 -40.5t33 -112.5h-234z" />
<glyph unicode="f" horiz-adv-x="737" d="M31 639h96v-639h453v639h127v305h-127v123q0 49 16 79t63 30h37v319h-258q-154 0 -232.5 -91t-78.5 -239v-221h-96v-305z" />
<glyph unicode="g" horiz-adv-x="1280" d="M41 496q0 -94 30.5 -178.5t86 -148t134.5 -100t175 -36.5q86 0 150.5 28.5t117.5 77.5v-78q0 -59 -40 -101t-138 -42q-82 0 -170 19.5t-164 54.5l-108 -268q104 -45 238 -73t300 -28q141 0 243.5 35t169.5 96.5t97.5 147.5t30.5 188v854h-459v-90q-53 49 -117.5 78 t-150.5 29q-96 0 -175 -38t-134.5 -102.5t-86 -148.5t-30.5 -176zM465 500q0 70 41 116t104 46q66 0 107 -46t41 -116t-40 -119t-108 -49q-63 0 -104 49t-41 119z" />
<glyph unicode="h" horiz-adv-x="1249" d="M86 0h459v496q0 51 23.5 80.5t66.5 29.5q47 0 63.5 -30.5t16.5 -86.5v-489h459v600q0 78 -20.5 145.5t-63.5 116.5t-110 78t-159 29q-86 0 -156.5 -34t-119.5 -91v651h-459v-1495z" />
<glyph unicode="i" horiz-adv-x="638" d="M86 1075h467v348h-467v-348zM90 0h459v944h-459v-944z" />
<glyph unicode="j" horiz-adv-x="638" d="M-43 -47v-320h281q154 0 232.5 91.5t78.5 238.5v981h-459v-883q0 -49 -16.5 -78.5t-63.5 -29.5h-53zM86 1075h467v348h-467v-348z" />
<glyph unicode="k" horiz-adv-x="1228" d="M86 0h459v152l71 88l109 -240h483l-270 565l279 379h-461l-211 -307v858h-459v-1495z" />
<glyph unicode="l" horiz-adv-x="638" d="M90 0h459v1495h-459v-1495z" />
<glyph unicode="m" horiz-adv-x="1843" d="M86 0h453v500q0 49 22.5 77.5t63.5 28.5q45 0 60 -29.5t15 -82.5v-494h453v500q0 49 22.5 77.5t63.5 28.5q45 0 60.5 -29.5t15.5 -82.5v-494h452v600q0 164 -87 266.5t-267 102.5q-98 0 -175 -35t-146 -105q-43 66 -112 103t-161 37q-94 0 -162.5 -34t-117.5 -91v100 h-453v-944z" />
<glyph unicode="n" horiz-adv-x="1249" d="M86 0h459v496q0 51 23.5 80.5t66.5 29.5q47 0 63.5 -30.5t16.5 -86.5v-489h459v600q0 78 -20.5 145.5t-63.5 116.5t-110 78t-159 29q-86 0 -156.5 -34t-119.5 -91v100h-459v-944z" />
<glyph unicode="o" d="M41 469q0 -113 42 -204t115.5 -155.5t173 -99.5t212.5 -35q111 0 209 37t172.5 103.5t117.5 157.5t43 202q0 113 -42 204t-115.5 155.5t-173 99.5t-211.5 35q-111 0 -209.5 -37t-173 -103.5t-117.5 -157.5t-43 -202zM444 469q0 76 39 126t99 50q63 0 102 -49t39 -121 q0 -76 -39 -126t-98 -50q-63 0 -102.5 49t-39.5 121z" />
<glyph unicode="p" horiz-adv-x="1280" d="M86 -367h459v463q53 -53 117.5 -82.5t150.5 -29.5q96 0 175 39.5t134.5 107.5t86 157t30.5 185q0 98 -30.5 187.5t-86 156t-134.5 105.5t-175 39q-86 0 -150.5 -30t-117.5 -83v96h-459v-1311zM522 469q0 70 40 119t108 49q63 0 104 -49t41 -119t-41 -116t-104 -46 q-66 0 -107 46t-41 116z" />
<glyph unicode="q" horiz-adv-x="1280" d="M41 471q0 -98 30.5 -187t86 -156t134.5 -105.5t175 -38.5q86 0 150.5 29.5t117.5 82.5v-463h459v1311h-459v-96q-53 53 -117.5 83t-150.5 30q-96 0 -175 -40t-134.5 -108t-86 -157t-30.5 -185zM465 475q0 70 41 116t104 46q66 0 107 -46t41 -116t-40 -119t-108 -49 q-63 0 -104 49.5t-41 118.5z" />
<glyph unicode="r" horiz-adv-x="1040" d="M86 0h459v362q0 72 33.5 124.5t111.5 52.5q41 0 71 -12.5t70 -43.5l201 402q-53 47 -110.5 65.5t-122.5 18.5q-86 0 -151.5 -43t-102.5 -99v117h-459v-944z" />
<glyph unicode="s" horiz-adv-x="937" d="M25 74q94 -47 198.5 -69.5t239.5 -22.5q211 0 326.5 83.5t115.5 237.5q0 135 -82 208t-243 107q-55 12 -87 18.5t-49.5 12.5t-22.5 12.5t-5 16.5q0 18 18.5 26.5t63.5 8.5q135 0 280 -66l99 236q-45 20 -87 34.5t-87.5 24.5t-96.5 15.5t-117 5.5q-96 0 -174.5 -21.5 t-137 -61.5t-90.5 -100.5t-32 -136.5q0 -74 23.5 -126t65.5 -89t101.5 -61.5t133.5 -38.5q55 -10 88 -17.5t50.5 -13.5t22.5 -12t5 -19q0 -35 -78 -35q-88 0 -170 18.5t-174 59.5z" />
<glyph unicode="t" horiz-adv-x="819" d="M27 639h110v-309q0 -147 79 -238.5t233 -91.5h317v319h-96q-47 0 -63.5 30t-16.5 79v211h149v305h-149v367h-453v-367h-110v-305z" />
<glyph unicode="u" horiz-adv-x="1249" d="M76 344q0 -78 20.5 -145.5t63.5 -116.5t109.5 -78t158.5 -29q86 0 156.5 34t120.5 91v-100h458v944h-458v-495q0 -51 -24 -81t-67 -30q-47 0 -63 30.5t-16 86.5v489h-459v-600z" />
<glyph unicode="v" horiz-adv-x="1236" d="M4 944l371 -944h487l371 944h-479l-125 -481l-125 481h-500z" />
<glyph unicode="w" horiz-adv-x="1773" d="M8 944l311 -944h441l127 274l127 -274h440l311 944h-469l-125 -457l-274 517l-274 -517l-125 457h-490z" />
<glyph unicode="x" horiz-adv-x="1150" d="M12 0h451l106 188l103 -188h467l-308 494l287 450h-450l-88 -153l-80 153h-467l284 -463z" />
<glyph unicode="y" horiz-adv-x="1236" d="M4 944l391 -950q-14 -18 -47 -29.5t-92 -11.5h-74v-320h219q168 0 268.5 67t157.5 210l406 1034h-479l-125 -481l-125 481h-500z" />
<glyph unicode="z" horiz-adv-x="1107" d="M0 0h1061v326h-377l412 618h-1026v-326h342z" />
<glyph unicode="{" horiz-adv-x="841" d="M33 408q57 -10 93 -23.5t54.5 -37t24.5 -62.5t6 -103q0 -123 47 -223t127 -172t187.5 -113t228.5 -43v377q-59 16 -88 54t-29 92q0 98 -7 163.5t-31.5 109.5t-71 76t-121.5 66q76 33 122 66t70.5 77t31.5 109.5t7 163.5q0 53 28.5 91t88.5 54v377q-121 -2 -228.5 -43 t-187.5 -112.5t-127 -172t-47 -223.5q0 -63 -6 -102t-24.5 -62.5t-54.5 -37t-93 -23.5v-323z" />
<glyph unicode="|" horiz-adv-x="700" d="M133 -367h434v1862h-434v-1862z" />
<glyph unicode="}" horiz-adv-x="841" d="M41 8v-377q121 2 228.5 43t187.5 113t127 172t47 223q0 63 6 102.5t24.5 63t53.5 36.5t94 24v323q-59 10 -94 23.5t-53.5 37t-24.5 62.5t-6 102q0 123 -47 223.5t-127 172t-187.5 112.5t-228.5 43v-377q59 -16 88 -54t29 -91q0 -98 7 -163.5t31.5 -109.5t70.5 -77 t122 -66q-78 -35 -123 -66.5t-69.5 -75.5t-31.5 -109.5t-7 -163.5q0 -53 -29 -91t-88 -55z" />
<glyph unicode="~" horiz-adv-x="1249" d="M62.5 700.5q-9.5 -100.5 3.5 -219.5h358q-10 66 0 110t51 44q23 0 40 -5t36.5 -16.5t45.5 -28t65 -38.5q33 -18 60.5 -32.5t55 -23t58 -12.5t69.5 -4q76 0 135.5 42t96.5 116t50 173t-3 216h-359q16 -82 3 -116t-44 -34q-12 0 -34.5 9.5t-47 21.5t-48 25.5t-36.5 19.5 q-49 27 -113.5 52.5t-144.5 25.5q-92 0 -155.5 -40t-98 -112.5t-44 -173z" />
<glyph unicode="&#xa1;" horiz-adv-x="749" d="M133 0h483v424l-73 524h-334l-76 -524v-424zM133 1077h483v418h-483v-418z" />
<glyph unicode="&#xa2;" horiz-adv-x="1024" d="M47 469q0 -102 35 -187t96.5 -147.5t145.5 -101.5t182 -51v-144h160v144q109 14 187.5 65t137.5 125l-223 193q-57 -70 -123 -82v376q63 -20 115 -84l221 213q-55 70 -131 117t-184 60v110h-160v-112q-96 -12 -180 -54.5t-145.5 -107t-97.5 -149.5t-36 -183zM416 469 q0 72 29.5 121t80.5 67v-372q-51 18 -80.5 67t-29.5 117z" />
<glyph unicode="&#xa3;" horiz-adv-x="1755" d="M86 274q0 -61 26.5 -116.5t79 -95t132 -63.5t188.5 -24q156 0 265.5 43t176.5 123q18 -16 51 -43.5t82.5 -55.5t116 -47.5t152.5 -19.5q147 0 230 96.5t83 295.5v159h-350q4 -78 -20.5 -109.5t-73.5 -31.5q-47 0 -97.5 22.5t-99.5 45.5q2 51 -19.5 116.5t-47.5 106.5h206 v98h-276q-25 27 -51.5 50.5t-53.5 45.5h381v99h-460q-18 12 -29.5 42.5t-11.5 65.5q0 61 42 103.5t134 42.5q111 0 164 -54.5t53 -158.5h463q-6 131 -56.5 227t-139.5 159.5t-213 93.5t-275 30q-166 0 -288 -36t-202 -94.5t-119 -133t-39 -150.5q0 -35 4.5 -70t20.5 -67 h-106v-99h161q23 -29 48.5 -49t48.5 -47h-258v-98h378q45 -31 88 -68t72 -65q-59 20 -114.5 28.5t-104.5 8.5q-76 0 -139.5 -22.5t-108.5 -62.5t-69.5 -96.5t-24.5 -124.5zM352 289q0 47 35 74.5t107 27.5q47 0 99 -16.5t91 -46.5q-16 -57 -71.5 -94t-129.5 -37 q-66 0 -98.5 25.5t-32.5 66.5z" />
<glyph unicode="&#xa4;" horiz-adv-x="1456" d="M29 614h198q14 -119 52 -233.5t112 -204.5t190.5 -145.5t290.5 -55.5q86 0 163 15.5t144.5 52.5t127 96.5t112.5 147.5l-307 219q-49 -72 -100 -113t-135 -41q-86 0 -134.5 74t-58.5 188h295v84h-297q-2 35 -2 62t2 61h297v88h-291q6 102 54.5 167t136.5 65 q35 0 62.5 -13.5t49 -34t37.5 -45t29 -44.5l344 206q-78 141 -217.5 225.5t-323.5 84.5q-137 0 -247.5 -44t-190.5 -125t-129 -194t-66 -248h-198v-88h192q-2 -61 0 -123h-192v-84z" />
<glyph unicode="&#xa5;" horiz-adv-x="1568" d="M41 1495l491 -956h-235v-88h250v-123h-250v-84h250v-244h463v244h258v84h-258v123h258v88h-254l514 956h-531l-172 -469q-8 -23 -22.5 -63.5t-18.5 -63.5q-6 23 -19 60.5t-24 66.5l-178 469h-522z" />
<glyph unicode="&#xa6;" horiz-adv-x="700" d="M133 -367h434v777h-434v-777zM133 719h434v776h-434v-776z" />
<glyph unicode="&#xa7;" horiz-adv-x="1312" d="M90 545q0 -68 16.5 -122t54.5 -98t101.5 -83t157.5 -76l225 -90q63 -27 86 -37t23 -39q0 -23 -24.5 -40t-67.5 -17q-94 0 -183.5 30.5t-156.5 85.5l-179 -280q55 -43 111.5 -75t117 -53.5t129 -31.5t150.5 -10q100 0 185.5 31.5t148 87t97 131.5t34.5 166q0 78 -26.5 126 t-51.5 74q35 31 69 68t61.5 81t45 96t17.5 112q0 82 -22.5 141t-66.5 104t-107.5 79t-143.5 65l-252 94q-61 23 -80.5 36t-19.5 36q0 29 24.5 38t65.5 9q74 0 159.5 -36t178.5 -101l176 290q-98 80 -219 131.5t-281 51.5q-102 0 -191.5 -28t-156 -79t-105 -122.5 t-38.5 -160.5q0 -74 25.5 -145.5t96.5 -128.5q-29 -20 -60.5 -53t-59 -74t-46 -88t-18.5 -96zM422 625q0 35 24.5 70.5t53.5 58.5l241 -103q33 -14 57.5 -26.5t41 -26.5t24.5 -32.5t8 -45.5q0 -43 -21.5 -76.5t-47.5 -56.5l-217 86q-41 16 -71 29.5t-51.5 30t-31.5 38 t-10 54.5z" />
<glyph unicode="&#xa8;" horiz-adv-x="1024" d="M86 1020h342v305h-342v-305zM596 1020h342v305h-342v-305z" />
<glyph unicode="&#xa9;" horiz-adv-x="1728" d="M92 748q0 -160 60.5 -300.5t166 -246t246 -166t299.5 -60.5q160 0 300.5 60.5t246 166t165.5 246t60 300.5t-60 300t-165.5 245.5t-246 166t-300.5 60.5t-300 -60.5t-245.5 -166t-166 -246t-60.5 -299.5zM225 745q0 137 48.5 257t133.5 209t201.5 139.5t255.5 50.5 q137 0 255 -50.5t203 -139.5t133 -209t48 -257q0 -139 -48 -257.5t-133 -206.5t-203 -138.5t-255 -50.5q-139 0 -255.5 50.5t-201.5 138.5t-133.5 206.5t-48.5 257.5zM426 750q0 -100 35 -185.5t96 -147t147.5 -95t188.5 -33.5q119 0 196.5 36t143.5 93l-143 194 q-41 -37 -86.5 -57t-94.5 -20q-90 0 -140 61t-50 160q0 111 55 162t127 51q43 0 87 -20.5t81 -57.5l145 196q-66 66 -150.5 96.5t-176.5 30.5q-86 0 -169 -29.5t-147.5 -89t-104.5 -146.5t-40 -199z" />
<glyph unicode="&#xaa;" horiz-adv-x="970" d="M129 483h690v205h-690v-205zM129 1028q0 -94 62.5 -161.5t191.5 -67.5q119 0 209 69v-49h227v451q0 111 -76.5 180.5t-257.5 69.5q-94 0 -169.5 -20.5t-116.5 -41.5l55 -153q29 14 87 27.5t124 13.5q76 0 103.5 -15.5t27.5 -52.5h-98q-78 0 -145.5 -16.5t-117 -48 t-78 -77.5t-28.5 -108zM344 1036q0 41 40 56.5t108 15.5h100v-76q-35 -27 -69 -40t-93 -13q-51 0 -68.5 17.5t-17.5 39.5z" />
<glyph unicode="&#xab;" horiz-adv-x="1126" d="M92 287l389 -217v333l-155 78l155 84v338l-389 -221v-395zM600 287l389 -217v333l-155 78l155 84v338l-389 -221v-395z" />
<glyph unicode="&#xac;" horiz-adv-x="1495" d="M0 406h332v684h-332v-684zM406 0h684v332h-684v-332zM406 406h684v684h-684v-684zM406 1163h684v332h-684v-332zM1163 406h332v684h-332v-684z" />
<glyph unicode="&#xad;" horiz-adv-x="851" d="M57 395h738v393h-738v-393z" />
<glyph unicode="&#xae;" horiz-adv-x="1728" d="M92 748q0 -160 60.5 -300.5t166 -246t246 -166t299.5 -60.5q160 0 300.5 60.5t246 166t165.5 246t60 300.5t-60 300t-165.5 245.5t-246 166t-300.5 60.5t-300 -60.5t-245.5 -166t-166 -246t-60.5 -299.5zM225 745q0 137 48.5 257t133.5 209t201.5 139.5t255.5 50.5 q137 0 255 -50.5t203 -139.5t133 -209t48 -257q0 -139 -48 -257.5t-133 -206.5t-203 -138.5t-255 -50.5q-139 0 -255.5 50.5t-201.5 138.5t-133.5 206.5t-48.5 257.5zM526 317h289v324l166 -324h319l-213 375q68 29 110 91.5t42 154.5q0 135 -89 205.5t-249 70.5h-375v-897z M813 815v184h47q105 0 105 -88q0 -43 -26 -69.5t-79 -26.5h-47z" />
<glyph unicode="&#xaf;" horiz-adv-x="1024" d="M184 1020h656v240h-656v-240z" />
<glyph unicode="&#xb0;" horiz-adv-x="892" d="M51 1124q0 -82 31 -153.5t85 -125.5t126 -85t153 -31q82 0 154 31t126 85t85 125.5t31 153.5t-31 154t-85 126t-126 85t-154 31t-153.5 -31t-125.5 -85t-85 -126t-31 -154zM276 1124q0 72 49 122t121 50t121 -50t49 -122t-49 -122t-121 -50t-121 50.5t-49 121.5z" />
<glyph unicode="&#xb1;" horiz-adv-x="2113" d="M31 639h96v-639h453v639h127v305h-127v123q0 49 16 79t63 30h37v319h-258q-154 0 -232.5 -91t-78.5 -239v-221h-96v-305zM768 639h96v-639h453v639h127v305h-127v123q0 49 16.5 79t63.5 30h37v319h-258q-154 0 -233 -91t-79 -239v-221h-96v-305zM1565 0h458v1495h-458 v-1495z" />
<glyph unicode="&#xb2;" horiz-adv-x="952" d="M92 674h754v250h-150l56 63q45 53 70.5 104.5t25.5 116.5q0 51 -17.5 105.5t-60.5 99.5t-112.5 74t-174.5 29q-86 0 -154.5 -31t-116.5 -81t-72.5 -116.5t-24.5 -140.5v-12h282v18q0 47 18.5 75.5t57.5 28.5t52.5 -22.5t13.5 -50.5q0 -23 -17.5 -50.5t-40.5 -50.5z" />
<glyph unicode="&#xb3;" horiz-adv-x="970" d="M129 795q104 -133 367 -133q76 0 141 19t114.5 54t77 83.5t27.5 107.5q0 63 -31.5 111t-93.5 75q43 27 75 68t32 112q0 53 -27 95.5t-73 71t-108.5 43t-133.5 14.5q-117 0 -193 -25t-135 -78l151 -201q29 31 63 51.5t69 20.5q29 0 50 -10t21 -43q0 -23 -20.5 -39 t-57.5 -16h-43v-160h43q49 0 73 -17.5t24 -42.5t-17.5 -42t-64.5 -17q-53 0 -87 26.5t-63 59.5z" />
<glyph unicode="&#xb4;" horiz-adv-x="1024" d="M322 1020h270l192 362h-329z" />
<glyph unicode="&#xb6;" horiz-adv-x="1710" d="M66 952q0 -125 45 -223t128 -165.5t199.5 -103.5t259.5 -36h70v-791h252v1598h131v-1598h436v1862h-831q-160 0 -288 -34t-217 -101.5t-137 -170t-48 -237.5zM541 965q0 127 52 191.5t167 64.5h8v-523h-20q-207 0 -207 267z" />
<glyph unicode="&#xb7;" horiz-adv-x="614" d="M76 365h463v454h-463v-454z" />
<glyph unicode="&#xb8;" horiz-adv-x="1024" d="M252 -328q47 -33 114.5 -56.5t137.5 -23.5q47 0 93 15.5t83 44.5t59.5 69.5t22.5 92.5q0 33 -15.5 63.5t-43 54t-65.5 37t-83 11.5l49 59h-188l-78 -107l53 -112q39 27 86 26q35 0 49.5 -12t14.5 -29q0 -16 -14.5 -28.5t-39.5 -12.5q-41 0 -76.5 12.5t-76.5 33.5z" />
<glyph unicode="&#xb9;" horiz-adv-x="741" d="M82 1110q47 4 87 15.5t69 33.5v-493h346v829h-303q-37 -84 -85.5 -112.5t-113.5 -36.5v-236z" />
<glyph unicode="&#xba;" horiz-adv-x="1021" d="M137 483h746v205h-746v-205zM137 1165q0 -84 30 -151.5t80 -115.5t117.5 -73.5t143.5 -25.5q78 0 146.5 28.5t118.5 79.5t80 118.5t30 145.5q0 70 -30 132.5t-80 110.5t-119.5 77t-149.5 29t-147.5 -30t-115.5 -79t-76 -113.5t-28 -132.5zM367 1157q0 57 41 98t98 41 t98 -41t41 -98t-41 -97t-98 -40t-98 40t-41 97z" />
<glyph unicode="&#xbb;" horiz-adv-x="1126" d="M137 70l389 217v395l-389 221v-338l156 -84l-156 -78v-333zM645 70l389 217v395l-389 221v-338l156 -84l-156 -78v-333z" />
<glyph unicode="&#xbc;" horiz-adv-x="2127" d="M82 1110q47 4 87 15.5t69 33.5v-493h346v829h-303q-37 -84 -85.5 -112.5t-113.5 -36.5v-236zM281 0h419l1018 1495h-420zM1194 156h412v-156h307v156h106v221h-106v442h-369l-350 -465v-198zM1456 381l150 190v-190h-150z" />
<glyph unicode="&#xbd;" horiz-adv-x="2066" d="M82 1110q47 4 87 15.5t69 33.5v-493h346v829h-303q-37 -84 -85.5 -112.5t-113.5 -36.5v-236zM260 0h420l1018 1495h-420zM1206 0h754v250h-150l56 63q45 53 70.5 104.5t25.5 117.5q0 51 -17.5 105t-60.5 99t-112.5 74t-174.5 29q-86 0 -154.5 -31t-116.5 -81 t-72.5 -116.5t-24.5 -140.5v-12h282v18q0 47 18.5 76t57.5 29t52.5 -22.5t13.5 -51.5q0 -23 -17.5 -50.5t-40.5 -49.5z" />
<glyph unicode="&#xbe;" horiz-adv-x="2209" d="M68 795q104 -133 366 -133q76 0 141.5 19t114.5 54t77 83.5t28 107.5q0 63 -32 111t-93 75q43 27 74.5 68t31.5 112q0 53 -26.5 95.5t-72.5 71t-108.5 43t-134.5 14.5q-117 0 -192.5 -25t-135.5 -78l152 -201q29 31 62.5 51.5t68.5 20.5q29 0 50.5 -10t21.5 -43 q0 -23 -20.5 -39t-57.5 -16h-43v-160h43q49 0 72.5 -17.5t23.5 -42.5t-17.5 -42t-64.5 -17q-53 0 -87 26.5t-62 59.5zM365 0h419l1018 1495h-420zM1276 156h412v-156h307v156h106v221h-106v442h-369l-350 -465v-198zM1538 381l150 190v-190h-150z" />
<glyph unicode="&#xbf;" horiz-adv-x="1024" d="M27 334q0 -166 124.5 -261.5t352.5 -95.5q166 0 286.5 48.5t229.5 138.5l-209 336q-72 -72 -131 -106t-98 -34q-70 0 -70 56q0 14 3 26.5t15.5 32t35 47t61.5 72.5q66 76 91 153.5t25 172.5v28h-409v-8q0 -59 -31 -110.5t-102 -131.5q-47 -53 -80 -95t-54.5 -83 t-30.5 -86t-9 -100zM297 1077h483v418h-483v-418z" />
<glyph unicode="&#xc0;" horiz-adv-x="1597" d="M10 0h477l80 272h439l79 -272h502l-518 1495h-541zM481 1987l193 -363h278l-133 363h-338zM674 633l112 379l113 -379h-225z" />
<glyph unicode="&#xc1;" horiz-adv-x="1597" d="M10 0h477l80 272h439l79 -272h502l-518 1495h-541zM608 1624h271l192 363h-330zM674 633l112 379l113 -379h-225z" />
<glyph unicode="&#xc2;" horiz-adv-x="1597" d="M10 0h477l80 272h439l79 -272h502l-518 1495h-541zM403 1624h279l94 137l94 -137h279l-234 363h-278zM674 633l112 379l113 -379h-225z" />
<glyph unicode="&#xc3;" horiz-adv-x="1597" d="M10 0h477l80 272h439l79 -272h502l-518 1495h-541zM373 1624h217q-4 49 17.5 66.5t49.5 17.5q25 0 54.5 -13.5t65.5 -30.5t76 -30.5t85 -13.5q119 0 196.5 83t77.5 247h-219q4 -51 -18.5 -67.5t-50.5 -16.5q-25 0 -55.5 13t-65.5 30.5t-75 31t-81 13.5q-117 0 -193.5 -84 t-80.5 -246zM674 633l112 379l113 -379h-225z" />
<glyph unicode="&#xc4;" horiz-adv-x="1597" d="M10 0h477l80 272h439l79 -272h502l-518 1495h-541zM31 1190h342v305h-342v-305zM674 633l112 379l113 -379h-225zM1225 1190h342v305h-342v-305z" />
<glyph unicode="&#xc5;" horiz-adv-x="1597" d="M10 0h477l80 272h439l79 -272h502l-536 1546q12 16 26.5 56t14.5 92q0 61 -24 115.5t-63.5 94.5t-94 63.5t-115.5 23.5t-115.5 -23.5t-94.5 -63.5t-63.5 -94.5t-23.5 -115.5q0 -57 16 -96t29 -62zM674 633l112 379l113 -379h-225zM694 1694q0 43 29 72.5t72 29.5 t71.5 -29.5t28.5 -72.5q0 -41 -28.5 -72t-71.5 -31t-72 31t-29 72z" />
<glyph unicode="&#xc6;" horiz-adv-x="1988" d="M12 0h477l115 274h359v-274h933v377h-456v182h366v373h-366v186h436v377h-1161zM754 631l209 497v-497h-209z" />
<glyph unicode="&#xc7;" horiz-adv-x="1449" d="M59 741q0 -143 42 -266t119 -220t185.5 -163.5t239.5 -95.5l-80 -72l70 -102q20 14 38.5 19t41.5 5q35 0 49 -12t14 -29q0 -16 -14 -28.5t-39 -12.5q-41 0 -77 12.5t-77 33.5l-82 -138q47 -33 115 -56.5t137 -23.5q47 0 93.5 15.5t83 44.5t59 69.5t22.5 92.5 q0 57 -42 102t-109 59q96 0 176 16.5t147.5 45.5t125 66.5t110.5 84.5l-240 326q-66 -61 -141.5 -96t-159.5 -35q-74 0 -133 27.5t-100 77t-62.5 118t-21.5 148.5t21.5 146.5t60.5 113.5t92 72.5t115 25.5q98 0 163.5 -39t128.5 -100l246 334q-49 41 -103 79.5t-118.5 68.5 t-140.5 47.5t-166 17.5q-170 0 -313.5 -58.5t-250 -163t-166 -247t-59.5 -310.5z" />
<glyph unicode="&#xc8;" horiz-adv-x="1146" d="M121 0h934v377h-455v182h365v373h-365v186h434v377h-913v-1495zM260 1987l193 -363h278l-133 363h-338z" />
<glyph unicode="&#xc9;" horiz-adv-x="1146" d="M121 0h934v377h-455v182h365v373h-365v186h434v377h-913v-1495zM420 1624h270l193 363h-330z" />
<glyph unicode="&#xca;" horiz-adv-x="1146" d="M121 0h934v377h-455v182h365v373h-365v186h434v377h-913v-1495zM207 1624h278l95 137l94 -137h278l-233 363h-279z" />
<glyph unicode="&#xcb;" horiz-adv-x="1146" d="M121 0h934v377h-455v182h365v373h-365v186h434v377h-913v-1495zM154 1624h342v305h-342v-305zM664 1624h342v305h-342v-305z" />
<glyph unicode="&#xcc;" horiz-adv-x="749" d="M72 1987l192 -363h279l-133 363h-338zM125 0h500v1495h-500v-1495z" />
<glyph unicode="&#xcd;" horiz-adv-x="749" d="M125 0h500v1495h-500v-1495zM195 1624h270l192 363h-329z" />
<glyph unicode="&#xce;" horiz-adv-x="749" d="M-2 1624h278l95 137l94 -137h278l-233 363h-279zM125 0h500v1495h-500v-1495z" />
<glyph unicode="&#xcf;" horiz-adv-x="749" d="M-66 1624h342v305h-342v-305zM125 0h500v1495h-500v-1495zM444 1624h342v305h-342v-305z" />
<glyph unicode="&#xd0;" horiz-adv-x="1568" d="M25 547h184v-547h549q72 0 154.5 15.5t165.5 51t160 93t135.5 140.5t94 193.5t35.5 254.5q0 209 -70.5 352t-182 231t-247 126t-264.5 38h-530v-592h-184v-356zM672 379v168h98v356h-98v215h71q61 0 113.5 -27.5t90.5 -76.5t59.5 -117t21.5 -147q0 -82 -22.5 -151 t-58.5 -118t-79 -75.5t-86 -26.5h-110z" />
<glyph unicode="&#xd1;" horiz-adv-x="1658" d="M121 0h471v690l559 -690h387v1495h-471v-641l-518 641h-428v-1495zM420 1624h217q-4 49 17.5 66.5t50.5 17.5q25 0 54 -13.5t65 -30.5t76 -30.5t85 -13.5q119 0 197 83t78 247h-220q4 -51 -18.5 -67.5t-50.5 -16.5q-25 0 -55.5 13t-65.5 30.5t-75 31t-81 13.5 q-117 0 -193.5 -84t-80.5 -246z" />
<glyph unicode="&#xd2;" horiz-adv-x="1728" d="M59 745q0 -168 59.5 -309t166 -243.5t254 -160t323.5 -57.5t323.5 58.5t255 162t168 245t60.5 309.5t-59.5 309t-166 243.5t-254 160t-323.5 57.5t-323.5 -58.5t-255 -162t-168 -245t-60.5 -309.5zM487 1987l193 -363h278l-133 363h-338zM549 750q0 80 23.5 148.5 t64.5 118.5t99.5 77.5t125.5 27.5q68 0 126.5 -28.5t101.5 -78.5t66.5 -120t23.5 -150t-23.5 -148.5t-64.5 -118.5t-99.5 -77.5t-126.5 -27.5t-126 28.5t-101 78.5t-66.5 120t-23.5 150z" />
<glyph unicode="&#xd3;" horiz-adv-x="1728" d="M59 745q0 -168 59.5 -309t166 -243.5t254 -160t323.5 -57.5t323.5 58.5t255 162t168 245t60.5 309.5t-59.5 309t-166 243.5t-254 160t-323.5 57.5t-323.5 -58.5t-255 -162t-168 -245t-60.5 -309.5zM549 750q0 80 23.5 148.5t64.5 118.5t99.5 77.5t125.5 27.5 q68 0 126.5 -28.5t101.5 -78.5t66.5 -120t23.5 -150t-23.5 -148.5t-64.5 -118.5t-99.5 -77.5t-126.5 -27.5t-126 28.5t-101 78.5t-66.5 120t-23.5 150zM682 1624h270l193 363h-330z" />
<glyph unicode="&#xd4;" horiz-adv-x="1728" d="M59 745q0 -168 59.5 -309t166 -243.5t254 -160t323.5 -57.5t323.5 58.5t255 162t168 245t60.5 309.5t-59.5 309t-166 243.5t-254 160t-323.5 57.5t-323.5 -58.5t-255 -162t-168 -245t-60.5 -309.5zM477 1624h279l94 137l94 -137h279l-234 363h-278zM549 750 q0 80 23.5 148.5t64.5 118.5t99.5 77.5t125.5 27.5q68 0 126.5 -28.5t101.5 -78.5t66.5 -120t23.5 -150t-23.5 -148.5t-64.5 -118.5t-99.5 -77.5t-126.5 -27.5t-126 28.5t-101 78.5t-66.5 120t-23.5 150z" />
<glyph unicode="&#xd5;" horiz-adv-x="1728" d="M59 745q0 -168 59.5 -309t166 -243.5t254 -160t323.5 -57.5t323.5 58.5t255 162t168 245t60.5 309.5t-59.5 309t-166 243.5t-254 160t-323.5 57.5t-323.5 -58.5t-255 -162t-168 -245t-60.5 -309.5zM412 1624h217q-4 49 17.5 66.5t49.5 17.5q25 0 54.5 -13.5t65.5 -30.5 t76 -30.5t85 -13.5q119 0 196.5 83t77.5 247h-219q4 -51 -18.5 -67.5t-50.5 -16.5q-25 0 -55.5 13t-65.5 30.5t-75 31t-81 13.5q-117 0 -193.5 -84t-80.5 -246zM549 750q0 80 23.5 148.5t64.5 118.5t99.5 77.5t125.5 27.5q68 0 126.5 -28.5t101.5 -78.5t66.5 -120t23.5 -150 t-23.5 -148.5t-64.5 -118.5t-99.5 -77.5t-126.5 -27.5t-126 28.5t-101 78.5t-66.5 120t-23.5 150z" />
<glyph unicode="&#xd6;" horiz-adv-x="1728" d="M23 1212h186q-72 -96 -111 -213.5t-39 -253.5q0 -168 59.5 -309t166 -243.5t254 -160t323.5 -57.5t323.5 58.5t255 162t168 245t60.5 309.5q0 135 -38 250.5t-109 211.5h184v306h-342v-150q-100 72 -226 112t-272 40q-147 0 -273 -41t-228 -113v152h-342v-306zM549 750 q0 80 23.5 148.5t64.5 118.5t99.5 77.5t125.5 27.5q68 0 126.5 -28.5t101.5 -78.5t66.5 -120t23.5 -150t-23.5 -148.5t-64.5 -118.5t-99.5 -77.5t-126.5 -27.5t-126 28.5t-101 78.5t-66.5 120t-23.5 150z" />
<glyph unicode="&#xd7;" horiz-adv-x="1193" d="M66 954l284 -280l-280 -279l241 -252l285 285l281 -276l247 247l-280 277l286 289l-249 243l-283 -286l-279 284z" />
<glyph unicode="&#xd8;" horiz-adv-x="1728" d="M59 745q0 -139 41 -259t117 -218l-145 -137l147 -141l146 137q100 -72 226 -112t271 -40q176 0 323.5 58.5t255 162t168 245t60.5 309.5q0 135 -39 251.5t-110 212.5l147 140l-156 127l-131 -125q-104 78 -233 121t-281 43q-176 0 -323.5 -58.5t-255 -162t-168 -245 t-60.5 -309.5zM549 750q0 80 23.5 148.5t64.5 118.5t99.5 77.5t125.5 27.5q55 0 103.5 -18.5t87.5 -52.5l-49 -47q-50 -48 -119.5 -112.5t-142 -133t-119 -111.5t-50.5 -47q-25 68 -24 150zM688 432l473 445q18 -61 19 -132q0 -80 -23.5 -148.5t-64.5 -118.5t-99.5 -77.5 t-126.5 -27.5q-51 0 -95 15t-83 44z" />
<glyph unicode="&#xd9;" horiz-adv-x="1662" d="M106 688q0 -188 55.5 -322.5t153 -221.5t229.5 -128t287 -41q156 0 288 41t229.5 128t152.5 221.5t55 322.5v807h-499v-858q0 -123 -60.5 -193.5t-165.5 -70.5q-104 0 -164.5 70.5t-60.5 193.5v858h-500v-807zM461 1966l192 -362h279l-133 362h-338z" />
<glyph unicode="&#xda;" horiz-adv-x="1662" d="M106 688q0 -188 55.5 -322.5t153 -221.5t229.5 -128t287 -41q156 0 288 41t229.5 128t152.5 221.5t55 322.5v807h-499v-858q0 -123 -60.5 -193.5t-165.5 -70.5q-104 0 -164.5 70.5t-60.5 193.5v858h-500v-807zM639 1604h270l193 362h-330z" />
<glyph unicode="&#xdb;" horiz-adv-x="1662" d="M106 688q0 -188 55.5 -322.5t153 -221.5t229.5 -128t287 -41q156 0 288 41t229.5 128t152.5 221.5t55 322.5v807h-499v-858q0 -123 -60.5 -193.5t-165.5 -70.5q-104 0 -164.5 70.5t-60.5 193.5v858h-500v-807zM418 1624h278l95 137l94 -137h278l-233 363h-279z" />
<glyph unicode="&#xdc;" horiz-adv-x="1662" d="M106 688q0 -188 55.5 -322.5t153 -221.5t229.5 -128t287 -41q156 0 288 41t229.5 128t152.5 221.5t55 322.5v807h-499v-858q0 -123 -60.5 -193.5t-165.5 -70.5q-104 0 -164.5 70.5t-60.5 193.5v858h-500v-807zM410 1622h342v305h-342v-305zM920 1622h342v305h-342v-305z " />
<glyph unicode="&#xdd;" horiz-adv-x="1482" d="M-6 1495l508 -936v-559h479v559l508 936h-510l-227 -485l-228 485h-530zM563 1624h271l192 363h-330z" />
<glyph unicode="&#xde;" horiz-adv-x="1347" d="M147 0h463v315h47q330 0 490 115t160 363q0 113 -44 193.5t-124 130.5t-192.5 73.5t-250.5 23.5h-86v281h-463v-1495zM610 684v162h117q70 0 97.5 -10.5t27.5 -67.5q0 -25 -5 -41t-19.5 -25.5t-42 -13.5t-70.5 -4h-105z" />
<glyph unicode="&#xdf;" horiz-adv-x="1290" d="M86 0h442v1081q0 57 25 83t68 26q41 0 70.5 -30t29.5 -89q0 -18 -3 -44t-16.5 -50.5t-41 -41.5t-76.5 -17h-11v-234q76 0 128.5 -8t84 -30.5t45 -60.5t13.5 -98q0 -113 -50.5 -163t-160.5 -41v-295q16 -4 46 -8.5t58 -4.5q113 0 207 34t163 95.5t106.5 148.5t37.5 193 q0 100 -30.5 167t-76.5 109t-98.5 63.5t-95.5 29.5q92 39 137.5 121t45.5 174q0 90 -39 166t-109 130t-165 84t-208 30q-121 0 -218 -31t-165.5 -90.5t-105.5 -144.5t-37 -195v-1059z" />
<glyph unicode="&#xe0;" d="M39 248q0 -63 24.5 -111.5t66.5 -82.5t97.5 -51t116.5 -17q102 0 170 25.5t123 72.5v-84h455v582q0 199 -118 283.5t-345 84.5q-90 0 -163 -7t-133.5 -19.5t-113.5 -31t-102 -42.5l100 -234q66 35 142.5 52.5t142.5 17.5q76 0 105.5 -20.5t29.5 -61.5v-12 q-295 -10 -446.5 -94t-151.5 -250zM299 1382l193 -362h278l-133 362h-338zM455 299q0 49 43 78t145 33v-146q-18 -18 -45 -29.5t-57 -11.5q-35 0 -60.5 20.5t-25.5 55.5z" />
<glyph unicode="&#xe1;" d="M39 248q0 -63 24.5 -111.5t66.5 -82.5t97.5 -51t116.5 -17q102 0 170 25.5t123 72.5v-84h455v582q0 199 -118 283.5t-345 84.5q-90 0 -163 -7t-133.5 -19.5t-113.5 -31t-102 -42.5l100 -234q66 35 142.5 52.5t142.5 17.5q76 0 105.5 -20.5t29.5 -61.5v-12 q-295 -10 -446.5 -94t-151.5 -250zM401 1020h271l192 362h-329zM455 299q0 49 43 78t145 33v-146q-18 -18 -45 -29.5t-57 -11.5q-35 0 -60.5 20.5t-25.5 55.5z" />
<glyph unicode="&#xe2;" d="M39 248q0 -63 24.5 -111.5t66.5 -82.5t97.5 -51t116.5 -17q102 0 170 25.5t123 72.5v-84h455v582q0 199 -118 283.5t-345 84.5q-90 0 -163 -7t-133.5 -19.5t-113.5 -31t-102 -42.5l100 -234q66 35 142.5 52.5t142.5 17.5q76 0 105.5 -20.5t29.5 -61.5v-12 q-295 -10 -446.5 -94t-151.5 -250zM201 1020h278l94 137l95 -137h278l-233 362h-279zM455 299q0 49 43 78t145 33v-146q-18 -18 -45 -29.5t-57 -11.5q-35 0 -60.5 20.5t-25.5 55.5z" />
<glyph unicode="&#xe3;" d="M39 248q0 -63 24.5 -111.5t66.5 -82.5t97.5 -51t116.5 -17q102 0 170 25.5t123 72.5v-84h455v582q0 199 -118 283.5t-345 84.5q-90 0 -163 -7t-133.5 -19.5t-113.5 -31t-102 -42.5l100 -234q66 35 142.5 52.5t142.5 17.5q76 0 105.5 -20.5t29.5 -61.5v-12 q-295 -10 -446.5 -94t-151.5 -250zM158 1022h217q-4 49 17.5 66.5t49.5 17.5q25 0 54.5 -13.5t65.5 -31t76 -30.5t85 -13q119 0 196.5 83t77.5 247h-219q4 -51 -18.5 -67.5t-50.5 -16.5q-25 0 -55.5 13t-65.5 30.5t-75 31t-81 13.5q-117 0 -193.5 -84t-80.5 -246zM455 299 q0 49 43 78t145 33v-146q-18 -18 -45 -29.5t-57 -11.5q-35 0 -60.5 20.5t-25.5 55.5z" />
<glyph unicode="&#xe4;" d="M39 248q0 -63 24.5 -111.5t66.5 -82.5t97.5 -51t116.5 -17q102 0 170 25.5t123 72.5v-84h455v582q0 199 -118 283.5t-345 84.5q-90 0 -163 -7t-133.5 -19.5t-113.5 -31t-102 -42.5l100 -234q66 35 142.5 52.5t142.5 17.5q76 0 105.5 -20.5t29.5 -61.5v-12 q-295 -10 -446.5 -94t-151.5 -250zM152 1020h342v305h-342v-305zM455 299q0 49 43 78t145 33v-146q-18 -18 -45 -29.5t-57 -11.5q-35 0 -60.5 20.5t-25.5 55.5zM662 1020h342v305h-342v-305z" />
<glyph unicode="&#xe5;" d="M39 248q0 -63 24.5 -111.5t66.5 -82.5t97.5 -51t116.5 -17q102 0 170 25.5t123 72.5v-84h455v582q0 199 -118 283.5t-345 84.5q-90 0 -163 -7t-133.5 -19.5t-113.5 -31t-102 -42.5l100 -234q66 35 142.5 52.5t142.5 17.5q76 0 105.5 -20.5t29.5 -61.5v-12 q-295 -10 -446.5 -94t-151.5 -250zM291 1323q0 -63 23.5 -118.5t64.5 -96.5t96 -64.5t119 -23.5q63 0 118.5 23.5t96.5 64.5t64.5 96.5t23.5 118.5t-23.5 118.5t-64.5 96.5t-96.5 64.5t-118.5 23.5t-118.5 -23.5t-96.5 -64.5t-64.5 -96.5t-23.5 -118.5zM455 299q0 49 43 78 t145 33v-146q-18 -18 -45 -29.5t-57 -11.5q-35 0 -60.5 20.5t-25.5 55.5zM494 1323q0 43 28.5 72.5t71.5 29.5t71.5 -29.5t28.5 -72.5q0 -41 -28.5 -71.5t-71.5 -30.5t-71.5 30.5t-28.5 71.5z" />
<glyph unicode="&#xe6;" horiz-adv-x="1701" d="M39 248q0 -63 24.5 -111.5t66.5 -82.5t97.5 -51t116.5 -17q117 0 218.5 36.5t193.5 143.5q31 -39 77 -74t102 -60.5t122.5 -41t140.5 -15.5q145 0 262 42t205 114l-147 213q-131 -94 -283 -94q-66 0 -121 31.5t-80 109.5h623q0 274 -131 415.5t-365 141.5q-33 0 -71.5 -8 t-76.5 -21.5t-71.5 -30t-58.5 -34.5q-57 41 -128 68.5t-190 27.5q-131 0 -241.5 -26.5t-206.5 -73.5l100 -234q66 35 142.5 52.5t142.5 17.5q76 0 109.5 -20.5t33.5 -61.5v-12q-299 -10 -452.5 -94t-153.5 -250zM455 299q0 49 45 78t147 33h19v-93q0 -23 -11.5 -40t-30 -29 t-40 -18.5t-39.5 -6.5q-35 0 -62.5 20.5t-27.5 55.5zM1026 578q0 78 38 117.5t87 39.5q109 1 109 -157h-234z" />
<glyph unicode="&#xe7;" horiz-adv-x="995" d="M41 469q0 -100 34 -183t93 -146.5t140 -103.5t177 -54l-57 -80l47 -103q14 10 37 17.5t43 7.5q31 0 45 -10.5t14 -24.5q0 -16 -14 -27.5t-43 -11.5q-39 0 -70.5 10.5t-66.5 28.5l-74 -119q41 -29 99.5 -47t123.5 -18q43 0 83 15t71 43t49.5 64.5t18.5 77.5 q0 55 -51.5 100.5t-135.5 41.5l25 30q121 10 208 63.5t148 131.5l-266 213q-31 -37 -61.5 -56.5t-71.5 -19.5q-59 0 -95 45t-36 115q0 72 35.5 119t95.5 47q41 0 71.5 -20.5t53.5 -55.5l264 229q-66 82 -158 131.5t-233 49.5q-111 0 -209.5 -37t-173 -103.5t-117.5 -157.5 t-43 -202z" />
<glyph unicode="&#xe8;" horiz-adv-x="1105" d="M41 469q0 -113 39 -204t111.5 -155.5t176 -99.5t234.5 -35q145 0 262 42t205 114l-147 213q-131 -94 -283 -94q-66 0 -121 31.5t-80 109.5h623q0 143 -37 252t-105.5 181.5t-165 108.5t-214.5 36q-109 0 -200 -37t-157.5 -103.5t-103.5 -157.5t-37 -202zM236 1382 l192 -362h279l-134 362h-337zM430 578q0 80 37 116.5t78 36.5q53 0 86 -40.5t33 -112.5h-234z" />
<glyph unicode="&#xe9;" horiz-adv-x="1105" d="M41 469q0 -113 39 -204t111.5 -155.5t176 -99.5t234.5 -35q145 0 262 42t205 114l-147 213q-131 -94 -283 -94q-66 0 -121 31.5t-80 109.5h623q0 143 -37 252t-105.5 181.5t-165 108.5t-214.5 36q-109 0 -200 -37t-157.5 -103.5t-103.5 -157.5t-37 -202zM377 1020h270 l193 362h-330zM430 578q0 80 37 116.5t78 36.5q53 0 86 -40.5t33 -112.5h-234z" />
<glyph unicode="&#xea;" horiz-adv-x="1105" d="M41 469q0 -113 39 -204t111.5 -155.5t176 -99.5t234.5 -35q145 0 262 42t205 114l-147 213q-131 -94 -283 -94q-66 0 -121 31.5t-80 109.5h623q0 143 -37 252t-105.5 181.5t-165 108.5t-214.5 36q-109 0 -200 -37t-157.5 -103.5t-103.5 -157.5t-37 -202zM182 1020h279 l94 137l94 -137h279l-234 362h-278zM430 578q0 80 37 116.5t78 36.5q53 0 86 -40.5t33 -112.5h-234z" />
<glyph unicode="&#xeb;" horiz-adv-x="1105" d="M41 469q0 -113 39 -204t111.5 -155.5t176 -99.5t234.5 -35q145 0 262 42t205 114l-147 213q-131 -94 -283 -94q-66 0 -121 31.5t-80 109.5h623q0 143 -37 252t-105.5 181.5t-165 108.5t-214.5 36q-109 0 -200 -37t-157.5 -103.5t-103.5 -157.5t-37 -202zM100 1020h342 v305h-342v-305zM430 578q0 80 37 116.5t78 36.5q53 0 86 -40.5t33 -112.5h-234zM610 1020h342v305h-342v-305z" />
<glyph unicode="&#xec;" horiz-adv-x="638" d="M53 1382l193 -362h278l-133 362h-338zM90 0h459v944h-459v-944z" />
<glyph unicode="&#xed;" horiz-adv-x="638" d="M90 0h459v944h-459v-944zM98 1020h271l192 362h-330z" />
<glyph unicode="&#xee;" horiz-adv-x="638" d="M-66 1020h279l94 137l94 -137h279l-234 362h-278zM90 0h459v944h-459v-944z" />
<glyph unicode="&#xef;" horiz-adv-x="638" d="M-129 1020h342v305h-342v-305zM90 0h459v944h-459v-944zM381 1020h342v305h-342v-305z" />
<glyph unicode="&#xf0;" horiz-adv-x="1097" d="M25 455q0 -98 38.5 -185.5t107.5 -153t166 -103.5t214 -38q74 0 165 30t170 99.5t133 185.5t54 288q0 199 -54 350t-134 268l141 59l-86 201l-203 -86q-66 66 -128 111t-109 75l-260 -262q70 -31 127 -80l-191 -79l92 -197l264 111q76 -98 93 -181q-23 25 -70 47.5 t-106 22.5q-92 0 -169 -34t-134.5 -96.5t-89 -152.5t-31.5 -200zM457 455q0 68 20.5 110.5t69.5 42.5t69.5 -41t20.5 -94q0 -78 -20.5 -121t-69.5 -43q-41 0 -65.5 41t-24.5 105z" />
<glyph unicode="&#xf1;" horiz-adv-x="1249" d="M86 0h459v496q0 51 23.5 80.5t66.5 29.5q47 0 63.5 -30.5t16.5 -86.5v-489h459v600q0 78 -20.5 145.5t-63.5 116.5t-110 78t-159 29q-86 0 -156.5 -34t-119.5 -91v100h-459v-944zM209 1020h217q-4 49 17.5 66.5t50.5 17.5q25 0 54.5 -13.5t65 -31t75.5 -30.5t85 -13 q119 0 197 83t78 247h-220q4 -51 -18.5 -67.5t-50.5 -16.5q-25 0 -55.5 13t-65.5 30.5t-75 31t-81 13.5q-117 0 -193.5 -84t-80.5 -246z" />
<glyph unicode="&#xf2;" d="M41 469q0 -113 42 -204t115.5 -155.5t173 -99.5t212.5 -35q111 0 209 37t172.5 103.5t117.5 157.5t43 202q0 113 -42 204t-115.5 155.5t-173 99.5t-211.5 35q-111 0 -209.5 -37t-173 -103.5t-117.5 -157.5t-43 -202zM256 1382l193 -362h278l-133 362h-338zM444 469 q0 76 39 126t99 50q63 0 102 -49t39 -121q0 -76 -39 -126t-98 -50q-63 0 -102.5 49t-39.5 121z" />
<glyph unicode="&#xf3;" d="M41 469q0 -113 42 -204t115.5 -155.5t173 -99.5t212.5 -35q111 0 209 37t172.5 103.5t117.5 157.5t43 202q0 113 -42 204t-115.5 155.5t-173 99.5t-211.5 35q-111 0 -209.5 -37t-173 -103.5t-117.5 -157.5t-43 -202zM375 1020h270l193 362h-330zM444 469q0 76 39 126 t99 50q63 0 102 -49t39 -121q0 -76 -39 -126t-98 -50q-63 0 -102.5 49t-39.5 121z" />
<glyph unicode="&#xf4;" d="M41 469q0 -113 42 -204t115.5 -155.5t173 -99.5t212.5 -35q111 0 209 37t172.5 103.5t117.5 157.5t43 202q0 113 -42 204t-115.5 155.5t-173 99.5t-211.5 35q-111 0 -209.5 -37t-173 -103.5t-117.5 -157.5t-43 -202zM219 1020h279l94 137l94 -137h279l-234 362h-278z M444 469q0 76 39 126t99 50q63 0 102 -49t39 -121q0 -76 -39 -126t-98 -50q-63 0 -102.5 49t-39.5 121z" />
<glyph unicode="&#xf5;" d="M41 469q0 -113 42 -204t115.5 -155.5t173 -99.5t212.5 -35q111 0 209 37t172.5 103.5t117.5 157.5t43 202q0 113 -42 204t-115.5 155.5t-173 99.5t-211.5 35q-111 0 -209.5 -37t-173 -103.5t-117.5 -157.5t-43 -202zM145 1022h217q-4 49 17.5 66.5t50.5 17.5 q25 0 54.5 -13.5t65.5 -31t76 -30.5t85 -13q119 0 196.5 83t77.5 247h-219q4 -51 -18.5 -67.5t-51.5 -16.5q-25 0 -55.5 13t-65 30.5t-74.5 31t-81 13.5q-117 0 -194 -84t-81 -246zM444 469q0 76 39 126t99 50q63 0 102 -49t39 -121q0 -76 -39 -126t-98 -50q-63 0 -102.5 49 t-39.5 121z" />
<glyph unicode="&#xf6;" d="M41 469q0 -113 42 -204t115.5 -155.5t173 -99.5t212.5 -35q111 0 209 37t172.5 103.5t117.5 157.5t43 202q0 113 -42 204t-115.5 155.5t-173 99.5t-211.5 35q-111 0 -209.5 -37t-173 -103.5t-117.5 -157.5t-43 -202zM160 1020h342v305h-342v-305zM444 469q0 76 39 126 t99 50q63 0 102 -49t39 -121q0 -76 -39 -126t-98 -50q-63 0 -102.5 49t-39.5 121zM670 1020h342v305h-342v-305z" />
<glyph unicode="&#xf7;" horiz-adv-x="1495" d="M0 406h332v684h-332v-684zM406 0h684v332h-684v-332zM406 406h684v684h-684v-684zM406 1163h684v332h-684v-332zM1163 406h332v684h-332v-684z" />
<glyph unicode="&#xf8;" d="M27 88l143 -139l106 104q66 -37 144 -57.5t164 -20.5q111 0 209 37t172.5 103.5t117.5 158t43 201.5q0 166 -92 287l88 84l-143 145l-96 -96q-66 35 -140.5 54.5t-158.5 19.5q-111 0 -209.5 -37t-173 -103.5t-117.5 -157.5t-43 -202q0 -162 86 -283zM444 469q0 76 39 126 t99 50q63 0 102 -49t39 -121q0 -76 -39 -126t-98 -50q-63 0 -102.5 49t-39.5 121z" />
<glyph unicode="&#xf9;" horiz-adv-x="1249" d="M76 344q0 -78 20.5 -145.5t63.5 -116.5t109.5 -78t158.5 -29q86 0 156.5 34t120.5 91v-100h458v944h-458v-495q0 -51 -24 -81t-67 -30q-47 0 -63 30.5t-16 86.5v489h-459v-600zM281 1382l192 -362h279l-134 362h-337z" />
<glyph unicode="&#xfa;" horiz-adv-x="1249" d="M76 344q0 -78 20.5 -145.5t63.5 -116.5t109.5 -78t158.5 -29q86 0 156.5 34t120.5 91v-100h458v944h-458v-495q0 -51 -24 -81t-67 -30q-47 0 -63 30.5t-16 86.5v489h-459v-600zM403 1020h271l192 362h-329z" />
<glyph unicode="&#xfb;" horiz-adv-x="1249" d="M76 344q0 -78 20.5 -145.5t63.5 -116.5t109.5 -78t158.5 -29q86 0 156.5 34t120.5 91v-100h458v944h-458v-495q0 -51 -24 -81t-67 -30q-47 0 -63 30.5t-16 86.5v489h-459v-600zM246 1020h278l94 137l95 -137h278l-233 362h-279z" />
<glyph unicode="&#xfc;" horiz-adv-x="1249" d="M76 344q0 -78 20.5 -145.5t63.5 -116.5t109.5 -78t158.5 -29q86 0 156.5 34t120.5 91v-100h458v944h-458v-495q0 -51 -24 -81t-67 -30q-47 0 -63 30.5t-16 86.5v489h-459v-600zM190 1020h342v305h-342v-305zM700 1020h342v305h-342v-305z" />
<glyph unicode="&#xfd;" horiz-adv-x="1236" d="M4 944l391 -950q-14 -18 -47 -29.5t-92 -11.5h-74v-320h219q168 0 268.5 67t157.5 210l406 1034h-479l-125 -481l-125 481h-500zM436 1020h271l192 362h-330z" />
<glyph unicode="&#xfe;" horiz-adv-x="1280" d="M86 -367h459v463q53 -53 117.5 -82.5t150.5 -29.5q96 0 175 39.5t134.5 107.5t86 157t30.5 185q0 98 -30.5 187.5t-86 156t-134.5 105.5t-175 39q-86 0 -150.5 -30t-117.5 -83v647h-459v-1862zM522 469q0 70 40 119t108 49q63 0 104 -49t41 -119t-41 -116t-104 -46 q-66 0 -107 46t-41 116z" />
<glyph unicode="&#xff;" horiz-adv-x="1236" d="M4 944l391 -950q-14 -18 -47 -29.5t-92 -11.5h-74v-320h219q168 0 268.5 67t157.5 210l406 1034h-479l-125 -481l-125 481h-500zM195 1020h342v305h-342v-305zM705 1020h342v305h-342v-305z" />
<glyph unicode="&#x152;" horiz-adv-x="2123" d="M59 745q0 -168 56.5 -309t159 -243.5t245 -160t314.5 -57.5q121 0 217 38t149 79v-92h832v377h-455v182h365v373h-365v186h434v377h-811v-88q-63 49 -165.5 77.5t-207.5 28.5q-135 0 -272 -43t-246.5 -136t-179.5 -238.5t-70 -350.5zM549 750q0 80 22.5 148.5t63.5 118.5 t98.5 77.5t124.5 27.5q68 0 124 -28.5t95 -78.5t60.5 -120t21.5 -150t-20.5 -148.5t-59.5 -118.5t-94 -77.5t-123 -27.5t-126 28.5t-99 78.5t-64.5 120t-23.5 150z" />
<glyph unicode="&#x153;" horiz-adv-x="1789" d="M41 469q0 -113 42 -204t115.5 -155.5t173 -99.5t212.5 -35q94 0 178 27t151 76q72 -49 165 -76t208 -27q145 0 262 42t205 114l-147 213q-131 -94 -283 -94q-66 0 -123 32.5t-78 108.5h623q0 143 -37 252t-105.5 181.5t-165 108.5t-214.5 36q-90 0 -169.5 -26t-138.5 -71 q-68 47 -151.5 72t-179.5 25q-111 0 -209.5 -37t-173 -103.5t-117.5 -157.5t-43 -202zM444 469q0 76 39 126t99 50q63 0 102 -49t39 -121q0 -76 -39 -126t-98 -50q-63 0 -102.5 49t-39.5 121zM1110 578q0 74 37 112.5t86 38.5q53 0 84 -40.5t31 -110.5h-238z" />
<glyph unicode="&#x178;" horiz-adv-x="1482" d="M-6 1495l508 -936v-559h479v559l508 936h-510l-227 -485l-228 485h-530zM307 1624h342v305h-342v-305zM817 1624h342v305h-342v-305z" />
<glyph unicode="&#x2c6;" horiz-adv-x="1024" d="M137 1020h279l94 137l94 -137h279l-234 362h-278z" />
<glyph unicode="&#x2dc;" horiz-adv-x="1024" d="M57 1020h217q-4 49 17.5 66.5t50.5 17.5q25 0 54.5 -13.5t65.5 -31t76 -30.5t85 -13q119 0 196.5 83t77.5 247h-219q4 -51 -18.5 -67.5t-51.5 -16.5q-25 0 -55.5 13t-65 30.5t-74.5 31t-81 13.5q-117 0 -194 -84t-81 -246z" />
<glyph unicode="&#x2000;" horiz-adv-x="995" />
<glyph unicode="&#x2001;" horiz-adv-x="1991" />
<glyph unicode="&#x2002;" horiz-adv-x="995" />
<glyph unicode="&#x2003;" horiz-adv-x="1991" />
<glyph unicode="&#x2004;" horiz-adv-x="663" />
<glyph unicode="&#x2005;" horiz-adv-x="497" />
<glyph unicode="&#x2006;" horiz-adv-x="331" />
<glyph unicode="&#x2007;" horiz-adv-x="331" />
<glyph unicode="&#x2008;" horiz-adv-x="248" />
<glyph unicode="&#x2009;" horiz-adv-x="398" />
<glyph unicode="&#x200a;" horiz-adv-x="110" />
<glyph unicode="&#x2010;" horiz-adv-x="851" d="M57 395h738v393h-738v-393z" />
<glyph unicode="&#x2011;" horiz-adv-x="851" d="M57 395h738v393h-738v-393z" />
<glyph unicode="&#x2012;" horiz-adv-x="851" d="M57 395h738v393h-738v-393z" />
<glyph unicode="&#x2013;" horiz-adv-x="1126" d="M57 401h1012v381h-1012v-381z" />
<glyph unicode="&#x2014;" horiz-adv-x="1925" d="M57 401h1811v381h-1811v-381z" />
<glyph unicode="&#x2018;" horiz-adv-x="614" d="M76 776h448v342q0 78 14.5 141.5t51.5 116.5l-252 162q-131 -88 -196.5 -203.5t-65.5 -273.5v-285z" />
<glyph unicode="&#x2019;" horiz-adv-x="614" d="M25 895l251 -162q131 88 197 203.5t66 273.5v285h-449v-342q0 -78 -14.5 -141.5t-50.5 -116.5z" />
<glyph unicode="&#x201a;" horiz-adv-x="614" d="M10 -145l252 -162q131 88 196.5 203.5t65.5 273.5v285h-448v-342q0 -78 -14.5 -141.5t-51.5 -116.5z" />
<glyph unicode="&#x201c;" horiz-adv-x="1208" d="M76 776h448v342q0 78 14.5 141.5t51.5 116.5l-252 162q-131 -88 -196.5 -203.5t-65.5 -273.5v-285zM670 776h448v342q0 78 14.5 141.5t51.5 116.5l-252 162q-131 -88 -196.5 -203.5t-65.5 -273.5v-285z" />
<glyph unicode="&#x201d;" horiz-adv-x="1208" d="M25 895l251 -162q131 88 197 203.5t66 273.5v285h-449v-342q0 -78 -14.5 -141.5t-50.5 -116.5zM618 895l252 -162q131 88 197 203.5t66 273.5v285h-449v-342q0 -78 -14.5 -141.5t-51.5 -116.5z" />
<glyph unicode="&#x201e;" horiz-adv-x="1208" d="M10 -145l252 -162q131 88 196.5 203.5t65.5 273.5v285h-448v-342q0 -78 -14.5 -141.5t-51.5 -116.5zM604 -145l252 -162q131 88 196.5 203.5t65.5 273.5v285h-448v-342q0 -78 -14.5 -141.5t-51.5 -116.5z" />
<glyph unicode="&#x2022;" horiz-adv-x="1269" d="M135 778q0 -106 38 -197.5t105.5 -159t158.5 -105t198 -37.5q106 0 197.5 37.5t159 105t105.5 159t38 197.5t-38 197.5t-105.5 159t-159 105.5t-197.5 38t-197.5 -38t-159 -105.5t-105.5 -158.5t-38 -198z" />
<glyph unicode="&#x2026;" horiz-adv-x="1810" d="M106 0h414v393h-414v-393zM698 0h414v393h-414v-393zM1290 0h414v393h-414v-393z" />
<glyph unicode="&#x202f;" horiz-adv-x="398" />
<glyph unicode="&#x2039;" horiz-adv-x="593" d="M92 287l389 -217v333l-155 78l155 84v338l-389 -221v-395z" />
<glyph unicode="&#x203a;" horiz-adv-x="593" d="M137 70l389 217v395l-389 221v-338l156 -84l-156 -78v-333z" />
<glyph unicode="&#x205f;" horiz-adv-x="497" />
<glyph unicode="&#x20ac;" horiz-adv-x="1456" d="M29 614h198q14 -119 52 -233.5t112 -204.5t190.5 -145.5t290.5 -55.5q86 0 163 15.5t144.5 52.5t127 96.5t112.5 147.5l-307 219q-49 -72 -100 -113t-135 -41q-86 0 -134.5 74t-58.5 188h295v84h-297q-2 35 -2 62t2 61h297v88h-291q6 102 54.5 167t136.5 65 q35 0 62.5 -13.5t49 -34t37.5 -45t29 -44.5l344 206q-78 141 -217.5 225.5t-323.5 84.5q-137 0 -247.5 -44t-190.5 -125t-129 -194t-66 -248h-198v-88h192q-2 -61 0 -123h-192v-84z" />
<glyph unicode="&#x2122;" horiz-adv-x="1822" d="M25 1266h178v-668h286v668h179v229h-643v-229zM768 598h283v438l141 -262h137l139 262v-438h299v897h-315l-188 -358l-205 358h-291v-897z" />
<glyph unicode="&#x25fc;" horiz-adv-x="942" d="M0 0v942h942v-942h-942z" />
<glyph unicode="&#xfb01;" horiz-adv-x="1376" d="M31 639h96v-639h453v639h127v305h-127v123q0 49 16 79t63 30h37v319h-258q-154 0 -232.5 -91t-78.5 -239v-221h-96v-305zM823 1075h467v348h-467v-348zM827 0h459v944h-459v-944z" />
<glyph unicode="&#xfb02;" horiz-adv-x="1376" d="M31 639h96v-639h453v639h127v305h-127v123q0 49 16 79t63 30h37v319h-258q-154 0 -232.5 -91t-78.5 -239v-221h-96v-305zM827 0h459v1495h-459v-1495z" />
</font>
</defs>
</svg>
