<?xml version="1.0" standalone="no"?>
<!DOCTYPE svg PUBLIC "-//W3C//DTD SVG 1.1//EN" "http://www.w3.org/Graphics/SVG/1.1/DTD/svg11.dtd" >
<svg xmlns="http://www.w3.org/2000/svg">
<metadata></metadata>
<defs>
<font id="nobel-lightregular" horiz-adv-x="1658" >
<font-face units-per-em="2048" ascent="1638" descent="-410" />
<missing-glyph horiz-adv-x="409" />
<glyph horiz-adv-x="2048" />
<glyph horiz-adv-x="2048" />
<glyph unicode="&#xd;" horiz-adv-x="1024" />
<glyph unicode=" "  horiz-adv-x="409" />
<glyph unicode="&#x09;" horiz-adv-x="409" />
<glyph unicode="&#xa0;" horiz-adv-x="409" />
<glyph unicode="!" horiz-adv-x="387" d="M147 0h93v172h-93v-172zM147 614l21 -350h51l21 350v881h-93v-881z" />
<glyph unicode="&#x22;" horiz-adv-x="573" d="M123 1317l20 -184h52l20 184v178h-92v-178zM358 1317l21 -184h51l21 184v178h-93v-178z" />
<glyph unicode="#" horiz-adv-x="1200" d="M61 465h244l-41 -465h92l41 465h357l-41 -465h92l41 465h293v74h-287l37 424h250v73h-244l41 459h-92l-41 -459h-357l41 459h-92l-41 -459h-293v-73h287l-37 -424h-250v-74zM403 539l37 424h357l-37 -424h-357z" />
<glyph unicode="$" horiz-adv-x="993" d="M51 186q29 -35 72 -65.5t94 -55t107.5 -42t113.5 -21.5v-143h84v143q88 6 162 36t127 80t82 117.5t29 151.5q0 86 -29 150.5t-81 116t-126 93t-164 82.5v580q82 -4 148.5 -30.5t126.5 -82.5l57 68q-80 66 -159 95.5t-173 33.5v115h-84v-115q-154 -12 -248 -102.5 t-94 -235.5q0 -72 21.5 -126t63.5 -99t106.5 -83t150.5 -77v-680q-92 6 -181 49t-148 107zM190 1155q0 109 62.5 176.5t185.5 77.5v-541q-70 33 -117 61.5t-76.5 61.5t-42 72t-12.5 92zM522 90v643q80 -37 138.5 -70.5t95.5 -73.5t55 -91t18 -121q0 -123 -80.5 -199 t-226.5 -88z" />
<glyph unicode="%" horiz-adv-x="1495" d="M102 1133q0 -96 25 -169t64.5 -121t91 -71.5t106.5 -23.5q68 0 123 29.5t93 82.5t58.5 124t20.5 155q0 78 -18.5 146.5t-55.5 120.5t-91 83t-124 31q-68 0 -122 -30t-92 -82t-58.5 -123t-20.5 -152zM174 0h105l1021 1495h-104zM195 1133q0 66 13 122t38.5 97t62.5 63.5 t86 22.5t86 -24.5t61.5 -65.5t37 -97.5t12.5 -117.5q0 -63 -12.5 -119t-38 -96.5t-63.5 -64.5t-89 -24q-96 0 -145 87.5t-49 216.5zM811 360q0 -96 24.5 -168.5t64.5 -120.5t91 -72t107 -24q68 0 123 30t93 83t58.5 124t20.5 155q0 78 -18.5 146.5t-55.5 120.5t-91 83 t-124 31q-68 0 -122 -30t-92 -82t-58.5 -123t-20.5 -153zM903 360q0 66 13.5 122.5t39 97.5t62.5 63.5t86 22.5t86 -25t61.5 -65.5t36.5 -97.5t12 -118q0 -63 -12 -118.5t-37.5 -96.5t-63.5 -64.5t-89 -23.5q-96 0 -145.5 87t-49.5 216z" />
<glyph unicode="&#x26;" horiz-adv-x="1290" d="M82 371q0 -84 30.5 -156t85 -125t128 -84t159.5 -31q145 0 261 61.5t210 149.5l166 -186h119l-221 250q39 41 73.5 82t67.5 80l-61 59q-29 -39 -62.5 -79t-72.5 -81l-455 512q55 39 107.5 83t92.5 93.5t64.5 103.5t24.5 116q0 63 -23.5 117.5t-64.5 95.5t-99.5 64.5 t-128.5 23.5q-66 0 -125 -23.5t-104 -64.5t-70.5 -96.5t-25.5 -118.5q0 -74 36.5 -141.5t90.5 -129.5l100 -112q-57 -43 -111.5 -92.5t-97.5 -106.5t-68.5 -123t-25.5 -141zM178 377q0 61 20.5 115.5t55.5 102.5t83 92t101 85l463 -522q-86 -80 -190.5 -134.5t-233.5 -54.5 q-68 0 -123 26t-94 69t-60.5 100t-21.5 121zM252 1223q0 49 18.5 89t50 67.5t73.5 42t89 14.5q102 0 163 -61t61 -165q0 -47 -20.5 -90t-54.5 -84t-80 -78.5t-95 -74.5l-105 116q-55 61 -77.5 112.5t-22.5 111.5z" />
<glyph unicode="'" horiz-adv-x="337" d="M123 1317l20 -184h52l20 184v178h-92v-178z" />
<glyph unicode="(" horiz-adv-x="600" d="M88 592q0 -311 125 -558t356 -433v57q-82 78 -151.5 182.5t-121.5 225t-82 254t-30 272.5q0 137 30 271t82 255t121.5 225.5t151.5 182.5v57q-231 -186 -356 -433t-125 -558z" />
<glyph unicode=")" horiz-adv-x="600" d="M31 -342v-57q231 186 356 433t125 558t-125 558t-356 433v-57q82 -78 151.5 -182.5t121.5 -225.5t82 -255t30 -271q0 -139 -30 -272.5t-82 -254t-121.5 -225t-151.5 -182.5z" />
<glyph unicode="*" horiz-adv-x="804" d="M86 1239l266 -80l-170 -221l62 -41l157 225l158 -227l59 45l-167 219l266 80l-25 70l-264 -92l8 278h-74l9 -278l-260 92z" />
<glyph unicode="+" horiz-adv-x="1028" d="M72 635h397v-379h90v379h397v82h-397v383h-90v-383h-397v-82z" />
<glyph unicode="," horiz-adv-x="337" d="M43 -303h57q47 53 81 128t34 175v172h-92v-166q0 -98 -16.5 -168.5t-63.5 -140.5z" />
<glyph unicode="-" horiz-adv-x="675" d="M123 422h430v82h-430v-82z" />
<glyph unicode="." horiz-adv-x="337" d="M123 0h92v172h-92v-172z" />
<glyph unicode="/" horiz-adv-x="761" d="M82 0h92l506 1495h-92z" />
<glyph unicode="0" horiz-adv-x="1232" d="M80 733q0 -145 31.5 -281.5t98 -242t166 -170t234.5 -64.5q141 0 243.5 62.5t169.5 169t98.5 250t31.5 305.5q0 143 -33 280.5t-98.5 243t-165.5 170t-235 64.5q-141 0 -244 -62.5t-168.5 -169t-97 -250t-31.5 -305.5zM176 745q0 139 25.5 264.5t80 219.5t138.5 149.5 t198 55.5q117 0 201 -60.5t136.5 -158t77 -219t24.5 -246.5q0 -139 -24.5 -264.5t-79 -219.5t-138.5 -149.5t-201 -55.5q-115 0 -197.5 60.5t-136 158t-79 219.5t-25.5 246z" />
<glyph unicode="1" horiz-adv-x="528" d="M27 1167q76 10 149.5 52.5t112.5 99.5v-1319h92v1495h-80q-14 -45 -43 -87t-66.5 -76t-79.5 -56.5t-85 -26.5v-82z" />
<glyph unicode="2" horiz-adv-x="1054" d="M45 0h922v90h-731l534 633q78 92 133 183t55 200q0 88 -33.5 164t-93 131t-139.5 87t-172 32q-86 0 -162.5 -29t-137 -81t-99.5 -124t-49 -158h94q18 137 114.5 221.5t243.5 84.5q74 0 135.5 -27t106.5 -72t69.5 -105.5t24.5 -129.5q0 -86 -44 -161t-114 -159z" />
<glyph unicode="3" horiz-adv-x="1122" d="M37 219q37 -51 90 -95t118.5 -77t140.5 -52.5t159 -19.5q113 0 202 32t151.5 91.5t96 142.5t33.5 185q0 147 -87 246.5t-222 134.5q117 43 183.5 132t66.5 222q0 80 -34 146.5t-90.5 113.5t-131 73t-156.5 26q-141 0 -252.5 -56.5t-191.5 -163.5l75 -47 q53 78 144.5 129.5t218.5 51.5q68 0 126 -20.5t102 -57.5t68.5 -90.5t24.5 -116.5q0 -145 -99 -225t-275 -80h-111v-82h115q217 0 323.5 -94.5t106.5 -253.5q0 -86 -29 -151.5t-81 -109.5t-122.5 -68t-152.5 -24q-141 0 -250 57.5t-191 155.5z" />
<glyph unicode="4" horiz-adv-x="1103" d="M43 401h688v-401h92v401h240v82h-240v1012h-55l-725 -1028v-66zM158 483l573 815v-815h-573z" />
<glyph unicode="5" horiz-adv-x="1181" d="M86 186q82 -90 205 -150.5t262 -60.5q121 0 217 43t162.5 117t102.5 171t36 206q0 117 -38 212t-104.5 162.5t-155.5 103.5t-191 36q-111 0 -193 -41t-141 -102l33 530h682v82h-770l-43 -741l71 -41q53 100 139 163.5t211 63.5q84 0 158 -28.5t128 -84t86 -138.5t32 -189 q0 -90 -28.5 -169t-83 -139.5t-132.5 -95.5t-174 -35q-123 0 -224.5 49.5t-178.5 133.5z" />
<glyph unicode="6" horiz-adv-x="1159" d="M82 473q0 -117 37 -209t102.5 -156.5t155.5 -98.5t196 -34t198.5 38t161 107.5t107.5 167t39 218.5q0 104 -36.5 192t-101 151.5t-154 98.5t-193.5 35q-109 0 -204 -44t-148 -116q27 76 73.5 164t109 177t135.5 174t151 157h-117q-90 -92 -181 -203.5t-165 -241.5 t-120 -275.5t-46 -301.5zM178 487q0 86 33 161t89 130.5t129 87t153 31.5q178 0 289.5 -103t111.5 -300q0 -90 -29.5 -168t-83 -135.5t-127 -90t-163.5 -32.5q-88 0 -162 27.5t-127 80.5t-83 131t-30 180z" />
<glyph unicode="7" horiz-adv-x="1034" d="M84 1411h745l-696 -1411h103l733 1495h-885v-84z" />
<glyph unicode="8" horiz-adv-x="1232" d="M78 410q0 -102 42 -182.5t115.5 -136.5t171 -86t207.5 -30q111 0 209.5 31t172 87.5t116.5 137.5t43 181q0 154 -92 254t-238 135q49 14 94.5 47t79 79t54 101t20.5 115q0 86 -34.5 155.5t-96 118.5t-144.5 76t-182 27q-98 0 -181 -27t-144.5 -76t-96 -120.5 t-34.5 -161.5q0 -57 19.5 -110.5t53 -98.5t77.5 -79t91 -48q-70 -16 -129 -55t-102 -91.5t-67.5 -115t-24.5 -127.5zM174 418q0 80 34 142.5t94 105.5t141 66.5t173 23.5q219 0 331 -95.5t112 -259.5q0 -84 -38 -147.5t-101.5 -106.5t-143.5 -64.5t-162 -21.5 q-84 0 -163.5 20.5t-141 63.5t-98.5 111t-37 162zM256 1141q0 141 99.5 218t260.5 77q162 0 261.5 -77t99.5 -224q0 -133 -92 -215t-269 -82q-176 0 -268 83t-92 220z" />
<glyph unicode="9" horiz-adv-x="1159" d="M63 991q0 -109 37 -203t101.5 -163.5t153.5 -108.5t194 -39q109 0 197 36t153 110q-61 -154 -171 -312.5t-247 -281.5l70 -68q84 86 174 197.5t165 244t123 284t48 317.5q0 117 -38 212t-104.5 162.5t-157.5 104.5t-198 37q-106 0 -197.5 -38t-159 -106.5t-105.5 -167 t-38 -217.5zM160 1004q0 92 28.5 169.5t81 134t126 89.5t163.5 33q88 0 162 -28t128 -83t85 -137t31 -191q0 -102 -31 -182t-84 -133t-127 -81t-162 -28q-98 0 -173 33t-125 91.5t-76.5 138t-26.5 174.5z" />
<glyph unicode=":" horiz-adv-x="337" d="M123 0h92v172h-92v-172zM123 698h92v172h-92v-172z" />
<glyph unicode=";" horiz-adv-x="337" d="M43 -303h57q47 53 81 128t34 175v172h-92v-166q0 -98 -16.5 -168.5t-63.5 -140.5zM123 698h92v172h-92v-172z" />
<glyph unicode="&#x3c;" horiz-adv-x="716" d="M78 621l555 -412v108l-479 349l479 346v104l-555 -407v-88z" />
<glyph unicode="=" horiz-adv-x="987" d="M133 487h721v82h-721v-82zM133 795h721v82h-721v-82z" />
<glyph unicode="&#x3e;" horiz-adv-x="716" d="M84 209l555 407v89l-555 411v-108l479 -349l-479 -346v-104z" />
<glyph unicode="?" horiz-adv-x="894" d="M68 1311l69 -54q43 86 116 131.5t167 45.5q59 0 110.5 -21.5t90 -59.5t60 -89.5t21.5 -108.5q0 -92 -48 -176t-109 -174q-35 -49 -68 -101.5t-58.5 -108.5t-42 -116.5t-16.5 -128.5v-82h93v92q0 100 49 204t112 190q33 47 67 95t59.5 99t42 105.5t16.5 113.5 q0 74 -29 138.5t-79 112.5t-119.5 75t-151.5 27q-113 0 -205 -51.5t-147 -157.5zM360 0h93v172h-93v-172z" />
<glyph unicode="@" horiz-adv-x="1728" d="M92 748q0 -160 60.5 -300.5t166 -246t246 -166t299.5 -60.5q72 0 149 14.5t163 53.5l-29 61q-80 -37 -150.5 -49t-132.5 -12q-145 0 -272 57.5t-223.5 153.5t-151.5 223t-55 268q0 145 55 273.5t150.5 223.5t223.5 150.5t273 55.5q166 0 297 -53.5t220 -142.5 t136.5 -204.5t47.5 -240.5q0 -98 -26 -173t-64.5 -124t-86 -74.5t-92.5 -25.5q-47 0 -73.5 23.5t-26.5 76.5v446q0 113 -76 181.5t-241 68.5q-86 0 -156 -17.5t-127 -49.5l35 -70q98 59 248 59q43 0 85 -6t74.5 -25.5t53 -55t20.5 -93.5v-67h-168q-205 0 -317.5 -73 t-112.5 -214q0 -63 23.5 -111.5t63.5 -81t93.5 -49t114.5 -16.5q98 0 175 36t130 83q10 -53 55 -86t109 -33q61 0 124.5 28.5t116 87t85 147.5t32.5 210q0 147 -55 276t-155.5 226.5t-244 153t-317.5 55.5q-160 0 -300 -60.5t-245.5 -166t-166 -246t-60.5 -299.5zM602 598 q0 111 91 160t259 49h160v-268q-53 -47 -132 -86t-171 -39q-86 0 -146.5 49t-60.5 135z" />
<glyph unicode="A" horiz-adv-x="1282" d="M61 0h99l205 573h553l204 -573h99l-553 1520h-52zM393 655l248 695l248 -695h-496z" />
<glyph unicode="B" horiz-adv-x="1193" d="M164 0h426q102 0 195.5 22.5t165 71.5t113.5 128t42 192q0 102 -40 172.5t-99.5 114.5t-126 65.5t-117.5 26.5q117 37 187.5 124t70.5 213q0 90 -35 159t-97.5 115t-148.5 68.5t-188 22.5h-348v-1495zM256 82v661h315q76 0 154 -18t141.5 -57t103.5 -102.5t40 -151.5 q0 -90 -35 -153.5t-93.5 -103.5t-134 -57.5t-157.5 -17.5h-334zM256 827v586h256q176 0 274.5 -71t98.5 -212q0 -78 -31 -135t-80 -94t-113.5 -55.5t-132.5 -18.5h-272z" />
<glyph unicode="C" horiz-adv-x="1462" d="M92 748q0 -164 56.5 -305.5t154.5 -245t229.5 -163t282.5 -59.5q104 0 190.5 24t155 62.5t122.5 85t93 93.5l-63 55q-49 -53 -100.5 -96t-111 -74t-128 -47.5t-154.5 -16.5q-135 0 -250.5 53.5t-199.5 146.5t-132.5 219t-48.5 274q0 133 46.5 256t129 217t197.5 150.5 t252 56.5q152 0 267.5 -55.5t201.5 -153.5l66 59q-88 111 -227.5 173.5t-305.5 62.5q-154 0 -286 -63.5t-229 -170t-152.5 -246t-55.5 -292.5z" />
<glyph unicode="D" horiz-adv-x="1339" d="M164 0h307q162 0 304.5 52t246.5 150.5t164.5 240t60.5 319.5q0 180 -60.5 317.5t-166 229.5t-246.5 139t-303 47h-307v-1495zM256 82v1331h240q139 0 258.5 -44t208 -128t138.5 -204.5t50 -274.5t-50 -280t-138.5 -215t-208 -137t-258.5 -48h-240z" />
<glyph unicode="E" horiz-adv-x="1062" d="M164 0h794v82h-702v666h598v81h-598v584h664v82h-756v-1495z" />
<glyph unicode="F" horiz-adv-x="913" d="M164 0h92v739h520v82h-520v592h575v82h-667v-1495z" />
<glyph unicode="G" horiz-adv-x="1650" d="M92 743q0 -170 60.5 -311t167 -242.5t250 -158t309.5 -56.5q143 0 267 50.5t218 136.5t150.5 199.5t62.5 240.5h-635v-84h535q-20 -98 -75.5 -182t-135.5 -145.5t-179.5 -95.5t-207.5 -34q-147 0 -273.5 48.5t-218.5 137.5t-145.5 215t-53.5 281q0 145 52.5 271.5 t144.5 219.5t217 146.5t270 53.5q78 0 143.5 -11.5t125 -36t114 -64.5t109.5 -99l61 63q-100 111 -236 172.5t-310 61.5q-164 0 -307.5 -60.5t-250 -165t-168 -246t-61.5 -305.5z" />
<glyph unicode="H" horiz-adv-x="1380" d="M164 0h92v741h868v-741h93v1495h-93v-672h-868v672h-92v-1495z" />
<glyph unicode="I" horiz-adv-x="419" d="M164 0h92v1495h-92v-1495z" />
<glyph unicode="J" horiz-adv-x="692" d="M53 -12h94q72 0 141.5 28.5t125 84t90.5 137t35 190.5v1067h-93v-1085q0 -68 -22.5 -130.5t-61 -108.5t-91 -73.5t-111.5 -27.5h-107v-82z" />
<glyph unicode="K" horiz-adv-x="1126" d="M164 0h92v680l98 106l600 -786h113l-651 854l590 641h-111l-639 -696v696h-92v-1495z" />
<glyph unicode="L" horiz-adv-x="991" d="M164 0h774v82h-682v1413h-92v-1495z" />
<glyph unicode="M" horiz-adv-x="1595" d="M164 0h92v1360l510 -791h61l512 795v-1364h93v1495h-113l-520 -815l-525 815h-110v-1495z" />
<glyph unicode="N" horiz-adv-x="1492" d="M164 0h92v1266q0 45 -2 78l-2 32l971 -1376h106v1495h-92v-1259q0 -45 2 -78l2 -33l-962 1370h-115v-1495z" />
<glyph unicode="O" d="M92 748q0 -164 57.5 -305.5t157 -245t234.5 -163t290 -59.5q156 0 290 59.5t233.5 164t156 246t56.5 305.5t-56.5 304t-156 243.5t-233.5 163t-290 59.5t-290.5 -59.5t-234 -163t-157 -245t-57.5 -304.5zM188 748q0 145 49.5 271t136.5 218t204.5 144.5t252.5 52.5 q137 0 254 -52.5t203 -144.5t134 -218t48 -271t-49 -271.5t-135 -218.5t-202.5 -144.5t-252.5 -52.5q-135 0 -252.5 52.5t-204.5 144.5t-136.5 218t-49.5 272z" />
<glyph unicode="P" horiz-adv-x="1071" d="M164 0h92v651h236q121 0 214 32t155.5 90t95 139.5t32.5 177.5q0 88 -30.5 162.5t-93 128t-156 84t-217.5 30.5h-328v-1495zM256 733v680h219q219 0 318.5 -88t99.5 -244q0 -72 -20.5 -135t-66.5 -110.5t-119 -75t-175 -27.5h-256z" />
<glyph unicode="Q" d="M92 748q0 -164 57.5 -305.5t157 -245t234.5 -163t290 -59.5q102 0 194.5 26t172.5 73q43 -35 88 -61.5t86 -43.5l78 76q-35 6 -80 28.5t-92 55.5q133 104 211 265t78 356q0 164 -56.5 304t-156 243.5t-233.5 163t-290 59.5t-290.5 -59.5t-234 -163t-157 -245 t-57.5 -304.5zM188 748q0 145 49.5 271t136.5 218t204.5 144.5t252.5 52.5q137 0 254 -52.5t203 -144.5t134 -218t48 -271q0 -180 -71.5 -326t-194.5 -238q-39 33 -68.5 65t-45.5 60l-66 -45q33 -57 106 -129q-66 -35 -141.5 -54.5t-157.5 -19.5q-135 0 -252.5 52.5 t-204.5 144.5t-136.5 218t-49.5 272z" />
<glyph unicode="R" horiz-adv-x="1110" d="M164 0h92v717l641 -717h119l-580 653h72q100 0 190 29t158 83t108 134t40 182q0 98 -38 175t-103.5 130.5t-151.5 81t-181 27.5h-366v-1495zM256 735v678h274q74 0 142.5 -20.5t121 -61.5t83 -103.5t30.5 -146.5q0 -90 -32.5 -155.5t-88 -107.5t-127 -62.5t-151.5 -20.5 h-252z" />
<glyph unicode="S" horiz-adv-x="987" d="M92 131q78 -74 181.5 -115t211.5 -41q82 0 158 28t134.5 79t93 120.5t34.5 153.5q0 94 -31.5 164t-84 122t-118 91t-132.5 74q-63 33 -123 66.5t-106 73.5t-73.5 92.5t-27.5 121.5q0 66 22.5 117t61.5 86t89 52.5t103 17.5q96 0 168 -28t142 -108l69 60q-78 90 -170 126 t-209 36q-74 0 -141.5 -26t-118.5 -72t-81.5 -112.5t-30.5 -148.5q0 -86 29.5 -149.5t78.5 -111.5t112.5 -85t129.5 -72q63 -35 125.5 -69.5t112 -79.5t79 -103.5t29.5 -138.5q0 -66 -26.5 -119t-70.5 -92t-103.5 -59.5t-123.5 -20.5q-98 0 -181 37t-152 99z" />
<glyph unicode="T" horiz-adv-x="974" d="M61 1413h381v-1413h93v1413h378v82h-852v-82z" />
<glyph unicode="U" horiz-adv-x="1374" d="M154 543q0 -129 41 -233.5t113.5 -178.5t169.5 -115t208 -41t209 41t170 115t114 178.5t42 233.5v952h-93v-952q0 -102 -34.5 -190.5t-95 -153t-140.5 -101.5t-172 -37t-172 37t-139.5 101.5t-94 152.5t-34.5 191v952h-92v-952z" />
<glyph unicode="V" horiz-adv-x="1345" d="M61 1495l609 -1554l614 1554h-92l-500 -1266q-6 -16 -12 -39l-6 -22l-6 22q-6 23 -15 41l-493 1264h-99z" />
<glyph unicode="W" horiz-adv-x="1900" d="M61 1495l465 -1495h70l348 1243q4 16 8 38l4 22l4 -23q5 -23 9 -39l346 -1241h69l455 1495h-96l-375 -1262q-4 -16 -10 -35l-6 -20l-4 18q-5 17 -9 33l-352 1266h-65l-349 -1266q-4 -16 -8 -33l-4 -18l-6 20q-6 19 -10 35l-385 1262h-99z" />
<glyph unicode="X" horiz-adv-x="1386" d="M61 0h109l526 739l518 -739h111l-575 813l479 682h-101l-432 -604l-430 604h-106l483 -682z" />
<glyph unicode="Y" horiz-adv-x="1286" d="M57 1495l537 -780v-715h92v713l543 782h-105l-479 -696l-481 696h-107z" />
<glyph unicode="Z" horiz-adv-x="1284" d="M90 0h1088v82h-932l928 1413h-977v-82h823z" />
<glyph unicode="[" horiz-adv-x="522" d="M154 -367h307v76h-219v1710h219v76h-307v-1862z" />
<glyph unicode="\" horiz-adv-x="761" d="M82 1495l506 -1495h92l-506 1495h-92z" />
<glyph unicode="]" horiz-adv-x="522" d="M61 -291v-76h308v1862h-308v-76h220v-1710h-220z" />
<glyph unicode="^" horiz-adv-x="989" d="M76 756h102l311 639l314 -639h98l-366 739h-89z" />
<glyph unicode="_" horiz-adv-x="1024" d="M0 -129v-82h1024v82h-1024z" />
<glyph unicode="`" horiz-adv-x="901" d="M313 1257l168 -266h97l-168 266h-97z" />
<glyph unicode="a" horiz-adv-x="872" d="M72 233q0 -63 23.5 -111t63.5 -81t93 -49.5t115 -16.5q98 0 173.5 36t129.5 83v-94h84v596q0 113 -76 181.5t-242 68.5q-86 0 -155.5 -17.5t-126.5 -50.5l34 -69q98 59 248 59q43 0 85 -6t75 -25.5t53.5 -55.5t20.5 -93v-68h-168q-205 0 -317.5 -70.5t-112.5 -216.5z M160 233q0 115 91 164t259 49h160v-268q-53 -47 -132 -86t-171 -39q-86 0 -146.5 47t-60.5 133z" />
<glyph unicode="b" horiz-adv-x="995" d="M133 0h84v170q16 -37 47 -73t71 -62.5t89 -43t104 -16.5q92 0 167 36t126 96.5t79 138.5t28 164q0 104 -30 185t-82 136t-125 85t-161 30q-55 0 -104 -16.5t-90 -43t-72 -62.5t-47 -73v844h-84v-1495zM217 414q0 68 22.5 131t63.5 113.5t97.5 80t123.5 29.5 q154 0 235 -97t81 -263q0 -68 -19.5 -132.5t-58.5 -113.5t-96.5 -79t-130.5 -30q-70 0 -128.5 28t-100.5 77t-65.5 114.5t-23.5 141.5z" />
<glyph unicode="c" horiz-adv-x="876" d="M68 414q0 -92 30.5 -172t85 -139.5t129 -93.5t162.5 -34q119 0 207 58.5t143 144.5l-65 43q-53 -78 -123 -123t-168 -45q-68 0 -125 29t-99 79t-65.5 116.5t-23.5 140.5q0 72 23.5 135t66.5 111.5t103.5 76t131.5 27.5q86 0 149.5 -36t112.5 -97l68 53q-23 27 -54.5 55.5 t-72.5 51t-94 37t-121 14.5q-84 0 -157.5 -34t-128 -92t-85 -137t-30.5 -169z" />
<glyph unicode="d" horiz-adv-x="995" d="M68 406q0 -86 26.5 -164t75.5 -137.5t120.5 -94.5t162.5 -35q55 0 106 16.5t94 43t76 62.5t49 73v-170h84v1495h-84v-844q-16 37 -47 73t-70.5 62.5t-88 43t-101.5 16.5q-82 0 -155.5 -30t-129 -87t-87 -138t-31.5 -185zM156 412q0 166 84 261t223 95q70 0 128 -29.5 t100 -80t64.5 -113.5t22.5 -131q0 -76 -23.5 -141.5t-66.5 -114.5t-101.5 -77t-127.5 -28q-76 0 -132.5 30t-94 79t-57 113.5t-19.5 136.5z" />
<glyph unicode="e" horiz-adv-x="909" d="M68 424q0 -88 25.5 -169t76.5 -143.5t130 -99.5t183 -37q66 0 120 13.5t98 35t77 48t56 53.5l-60 51q-57 -59 -125.5 -91t-161.5 -32q-80 0 -141 29t-103 78t-64.5 116.5t-22.5 145.5h696q-4 80 -26.5 155.5t-68.5 135t-117 96.5t-169 37q-102 0 -178 -36t-126 -95.5 t-74.5 -135t-24.5 -155.5zM160 496q8 55 30.5 104t59.5 87t91 59.5t126 21.5q68 0 119 -24.5t87 -63.5t54.5 -88t22.5 -96h-590z" />
<glyph unicode="f" horiz-adv-x="415" d="M14 748h144v-748h84v748h151v73h-151v479q0 68 23.5 92.5t64.5 24.5h63v78h-69q-72 0 -119 -42t-47 -138v-494h-144v-73z" />
<glyph unicode="g" horiz-adv-x="995" d="M68 412q0 -104 29.5 -185.5t81.5 -136.5t125 -85t161 -30q55 0 104 16.5t90 43t72 62.5t47 73v-170q0 -76 -24.5 -134.5t-66.5 -98t-98.5 -60t-117.5 -20.5q-90 0 -169 30.5t-132 89.5l-59 -53q70 -72 163 -108.5t193 -36.5q82 0 153.5 26.5t126 77.5t85 125t30.5 168 v815h-84v-170q-16 37 -47 73t-70.5 62.5t-89 43t-104.5 16.5q-92 0 -167 -36t-126 -96.5t-78.5 -138t-27.5 -163.5zM156 414q0 68 19.5 132t58 113.5t96 79t131.5 29.5q70 0 128 -27.5t100 -77t65.5 -114.5t23.5 -141q0 -68 -22.5 -131.5t-63.5 -113.5t-97 -80t-124 -30 q-154 0 -234.5 97.5t-80.5 263.5z" />
<glyph unicode="h" horiz-adv-x="917" d="M133 0h84v504q0 47 19.5 95t55.5 86t86 62.5t111 24.5q109 0 167.5 -65.5t58.5 -163.5v-543h84v555q0 61 -20.5 114.5t-59.5 92.5t-96.5 61.5t-128.5 22.5q-92 0 -165 -44t-112 -116v809h-84v-1495z" />
<glyph unicode="i" horiz-adv-x="350" d="M133 0h84v821h-84v-821zM133 1051h84v163h-84v-163z" />
<glyph unicode="j" horiz-adv-x="350" d="M-25 -301l17 -74q37 -10 90 -10q59 0 97 30t38 87v1089h-84v-1067q0 -37 -20.5 -52t-53.5 -15q-23 0 -45 3t-39 9zM133 1051h84v163h-84v-163z" />
<glyph unicode="k" horiz-adv-x="843" d="M133 0h84v313l105 99l372 -412h115l-428 467l381 354h-119l-426 -403v1077h-84v-1495z" />
<glyph unicode="l" horiz-adv-x="350" d="M133 0h84v1495h-84v-1495z" />
<glyph unicode="m" horiz-adv-x="1429" d="M133 0h84v504q0 51 21.5 99t59.5 86t88 60.5t108 22.5q102 0 144 -65.5t42 -163.5v-543h84v506q0 51 21.5 99t59.5 85t88 59.5t107 22.5q92 0 139.5 -65.5t47.5 -163.5v-543h84v555q0 123 -67.5 207t-203.5 84q-92 0 -172 -47t-123 -119q-23 74 -84 120t-167 46 q-92 0 -166 -44t-111 -116v135h-84v-821z" />
<glyph unicode="n" horiz-adv-x="917" d="M133 0h84v504q0 47 19.5 95t55.5 86t86 62.5t111 24.5q109 0 167.5 -65.5t58.5 -163.5v-543h84v555q0 61 -20.5 114.5t-59.5 92.5t-96.5 61.5t-128.5 22.5q-92 0 -165 -44t-112 -116v135h-84v-821z" />
<glyph unicode="o" horiz-adv-x="1003" d="M68 412q0 -96 33.5 -176t93 -138.5t138.5 -90.5t169 -32t169 32t138 90.5t93 138.5t34 176t-34 176t-93 137t-138 89t-169 32t-169 -32t-138.5 -89t-93 -137t-33.5 -176zM156 412q0 78 26.5 143.5t72.5 112.5t109.5 73.5t137.5 26.5t137 -26.5t109.5 -73.5t73 -112.5 t26.5 -143.5t-26.5 -143.5t-73 -114t-110 -75t-136.5 -26.5q-74 0 -137.5 26.5t-109.5 75t-72.5 114t-26.5 143.5z" />
<glyph unicode="p" horiz-adv-x="995" d="M133 -367h84v537q16 -37 46 -73t70 -62.5t89 -43t102 -16.5q82 0 156 30t129 87.5t87 138.5t32 185q0 86 -27 163.5t-76 137t-120.5 94.5t-161.5 35q-55 0 -106.5 -16.5t-94.5 -43t-76 -62.5t-49 -73v170h-84v-1188zM217 408q0 76 23.5 141t66.5 114.5t101.5 77 t128.5 27.5q76 0 132 -29.5t94 -79t57.5 -113.5t19.5 -136q0 -166 -84 -261.5t-224 -95.5q-72 0 -129 30t-99 80t-64.5 113.5t-22.5 131.5z" />
<glyph unicode="q" horiz-adv-x="995" d="M68 412q0 -104 29.5 -185.5t81.5 -136.5t125 -85t161 -30q55 0 104 16.5t90 43t72 62.5t47 73v-537h84v1188h-84v-170q-16 37 -47 73t-70.5 62.5t-89 43t-104.5 16.5q-92 0 -167 -36t-126 -96.5t-78.5 -138t-27.5 -163.5zM156 414q0 68 19.5 132t58 113.5t96 79 t131.5 29.5q70 0 128 -27.5t100 -77t65.5 -114.5t23.5 -141q0 -68 -22.5 -131.5t-63.5 -113.5t-97 -80t-124 -30q-154 0 -234.5 97.5t-80.5 263.5z" />
<glyph unicode="r" horiz-adv-x="616" d="M133 0h84v500q0 47 17.5 96t46 88t65.5 63.5t78 24.5q39 0 66.5 -13.5t54.5 -37.5l49 63q-37 35 -75 48.5t-87 13.5q-76 0 -131 -44t-84 -104v123h-84v-821z" />
<glyph unicode="s" horiz-adv-x="733" d="M82 68q49 -41 128 -67t157 -26q51 0 103 17.5t92 48.5t65.5 75t25.5 97q0 66 -24.5 110t-63.5 71.5t-88 45t-98 31.5q-92 27 -145.5 59.5t-53.5 104.5q0 33 15.5 58.5t40 42t56.5 25.5t62 9q66 0 118 -18.5t103 -57.5l50 62q-61 47 -126 68.5t-141 21.5q-47 0 -93 -13.5 t-85 -41t-62.5 -67.5t-23.5 -93q0 -55 20.5 -94t54.5 -67t77 -45t88 -30q47 -12 89 -26.5t73.5 -34t50 -49t18.5 -72.5q0 -35 -17.5 -63.5t-45 -50t-63.5 -34t-72 -12.5q-63 0 -126 22.5t-108 57.5z" />
<glyph unicode="t" horiz-adv-x="462" d="M20 748h130v-574q0 -76 49 -125t135 -49h59v74h-51q-55 0 -82 31.5t-27 66.5v576h158v73h-158v385h-83v-385h-130v-73z" />
<glyph unicode="u" horiz-adv-x="917" d="M119 266q0 -61 20.5 -114.5t59.5 -92.5t96 -61.5t129 -22.5q92 0 165 44t111 116v-135h84v821h-84v-504q0 -47 -19 -95t-55 -86t-86.5 -62.5t-111.5 -24.5q-109 0 -167 65.5t-58 164.5v542h-84v-555z" />
<glyph unicode="v" horiz-adv-x="825" d="M35 821l379 -868l377 868h-84l-293 -674l-289 674h-90z" />
<glyph unicode="w" horiz-adv-x="1284" d="M35 821l350 -868l260 653l262 -653l342 868h-88l-252 -645l-264 645l-258 -651l-262 651h-90z" />
<glyph unicode="x" horiz-adv-x="829" d="M41 0h96l277 379l272 -379h102l-323 449l270 372h-98l-223 -309l-226 309h-98l275 -375z" />
<glyph unicode="y" horiz-adv-x="811" d="M35 821l336 -817l-72 -178q-23 -55 -58.5 -96t-95.5 -41q-29 0 -52 7t-48 23v-81q49 -25 121 -25t122 47t79 121l409 1040h-84l-274 -706l-293 706h-90z" />
<glyph unicode="z" horiz-adv-x="856" d="M43 0h719v78h-559l596 743h-678v-78h516z" />
<glyph unicode="{" horiz-adv-x="532" d="M51 537q49 0 78 -32t43 -82t18.5 -114.5t4.5 -128.5q0 -113 10 -194.5t42 -144t90.5 -112t156.5 -96.5v78q-61 43 -101.5 80t-64 85t-32.5 112.5t-9 163.5q0 80 -3 147.5t-17.5 121.5t-44 95t-83.5 68q53 27 83 67.5t44.5 95t17.5 122t3 147.5q0 98 9 162.5t32.5 112.5 t63.5 85t102 80v78q-98 -47 -156.5 -96t-90.5 -111.5t-42 -144.5t-10 -195q0 -66 -4.5 -129t-18.5 -113.5t-43 -82t-78 -31.5v-94z" />
<glyph unicode="|" horiz-adv-x="415" d="M164 -367h88v1862h-88v-1862z" />
<glyph unicode="}" horiz-adv-x="532" d="M39 -289v-78q98 47 156.5 96.5t90 112t42 144.5t10.5 194q0 63 4 128t18.5 115t43 82t77.5 32v94q-49 0 -77.5 31.5t-43 82t-18.5 114t-4 128.5q0 113 -10.5 195t-42 144.5t-90 111.5t-156.5 96v-78q61 -43 101 -80t63.5 -85t33 -112.5t9.5 -162.5q0 -80 3 -147.5 t17.5 -122t44 -95.5t82.5 -67q-53 -27 -82.5 -68t-44 -95t-17.5 -122t-3 -147q0 -98 -9.5 -163t-33 -113t-63.5 -85t-101 -80z" />
<glyph unicode="~" horiz-adv-x="901" d="M102 635h88q4 86 34 124t71 38q29 0 62.5 -23.5t72.5 -52.5q43 -35 89 -62.5t89 -27.5q55 0 91 24.5t57.5 61.5t31 79.5t11.5 77.5h-88q-4 -82 -34 -121.5t-71 -39.5q-27 0 -62.5 24.5t-76.5 55t-87 58.5t-87 28q-53 0 -89 -25t-57.5 -61.5t-32 -79.5t-12.5 -78z" />
<glyph unicode="&#xa1;" horiz-adv-x="387" d="M147 0h93v881l-21 350h-51l-21 -350v-881zM147 1323h93v172h-93v-172z" />
<glyph unicode="&#xa2;" horiz-adv-x="901" d="M68 414q0 -86 27.5 -163t76.5 -135.5t116.5 -94t147.5 -44.5v-139h82v139q104 10 180 66.5t127 134.5l-65 43q-47 -68 -105.5 -110.5t-136.5 -53.5v709q72 -8 127 -42t98 -89l68 53q-41 51 -111.5 98.5t-181.5 57.5v170h-82v-170q-78 -6 -145.5 -42t-116.5 -93.5 t-77.5 -133t-28.5 -161.5zM156 418q0 66 20.5 125t57 106t88 78t114.5 39v-711q-61 6 -112.5 38t-89 81t-58 111.5t-20.5 132.5z" />
<glyph unicode="&#xa3;" horiz-adv-x="1073" d="M96 113q0 -31 15.5 -55.5t40 -43t54.5 -29t60 -10.5q74 0 137.5 32t106.5 95q59 -45 121.5 -86t142.5 -41q117 0 172.5 77t59.5 229h-86q0 -45 -7.5 -85t-23 -71t-42 -49.5t-67.5 -18.5q-66 0 -120 36t-113 79q31 76 31 186q0 43 -7 80h199v74h-213q-16 57 -39 98h252v74 h-295q-37 55 -77 105.5t-73.5 102.5t-56 110.5t-22.5 130.5q0 137 80 219t225 82q121 0 204 -68t109 -197h97q-6 57 -34 119t-79 113t-124 85t-167 34q-90 0 -165 -27t-128 -78t-83.5 -123.5t-30.5 -167.5q0 -72 19 -130t51 -110.5t70 -100.5t75 -99h-193v-74h240 q14 -23 25.5 -47t21.5 -51h-287v-74h307q12 -53 13 -110q0 -57 -19 -109q-39 23 -82 37t-96 14q-104 0 -151.5 -45t-47.5 -112zM182 121q0 35 28 55.5t79 20.5q43 0 79.5 -12t71.5 -35q-29 -45 -69.5 -73t-91.5 -28q-43 0 -70 18.5t-27 53.5z" />
<glyph unicode="&#xa4;" horiz-adv-x="1243" d="M43 612h166q12 -127 49 -242.5t101.5 -202.5t156.5 -139.5t211 -52.5q152 0 256 65.5t170 182.5l-80 47q-53 -98 -136 -153.5t-206 -55.5q-98 0 -172 46.5t-126 122t-84 174.5t-44 208h461v74h-467q-2 49 0 100h467v74h-463q10 119 41 224.5t84 182t129 122t178 45.5 q117 0 197 -55.5t133 -147.5l82 47q-66 113 -167 177.5t-243 64.5q-125 0 -219 -51.5t-159.5 -140.5t-102.5 -210t-49 -258h-164v-74h160q-2 -49 0 -100h-160v-74z" />
<glyph unicode="&#xa5;" horiz-adv-x="1286" d="M57 1495l537 -780v-162h-410v-76h410v-162h-410v-75h410v-240h92v240h375v75h-375v162h375v76h-375v160l543 782h-105l-479 -696l-481 696h-107z" />
<glyph unicode="&#xa6;" horiz-adv-x="415" d="M164 -367h88v777h-88v-777zM164 719h88v776h-88v-776z" />
<glyph unicode="&#xa7;" horiz-adv-x="1288" d="M61 647q0 -102 44.5 -175t114 -126t157.5 -91t178 -71q98 -35 174 -62.5t128 -57t79 -65.5t27 -87q0 -41 -18.5 -80t-57.5 -69.5t-99.5 -49t-144.5 -18.5q-45 0 -97 10t-101.5 27.5t-91.5 43t-68 56.5l-62 -65q25 -29 69 -56.5t99 -50t118.5 -37t129.5 -14.5 q98 0 176 23.5t132 66.5t83 100.5t29 124.5q0 57 -26.5 101.5t-71.5 78.5q55 25 101 63t81 87t54.5 107.5t19.5 119.5q0 100 -44.5 174t-114 127.5t-158.5 91t-177 70.5q-98 35 -174 62.5t-128 57.5t-79 65.5t-27 87.5q0 41 18.5 79.5t57.5 69.5t99.5 49.5t144.5 18.5 q45 0 97 -10.5t101.5 -28t91.5 -43t68 -56.5l62 66q-25 27 -69 55.5t-99.5 51t-120 37t-127.5 14.5q-98 0 -176 -23.5t-132.5 -67t-83 -100.5t-28.5 -125q0 -57 26.5 -101t71.5 -79q-55 -25 -101 -62.5t-81 -87t-54.5 -107.5t-19.5 -120zM158 659q0 104 66.5 189.5 t172.5 126.5q57 -29 124 -53.5t136 -49.5q104 -37 189.5 -71.5t146 -79.5t94 -105.5t33.5 -146.5q0 -104 -66.5 -189t-172.5 -126q-57 29 -124 53t-136 49q-104 37 -189.5 71.5t-146 80t-94 105.5t-33.5 146z" />
<glyph unicode="&#xa8;" horiz-adv-x="901" d="M244 991h94v172h-94v-172zM563 991h94v172h-94v-172z" />
<glyph unicode="&#xa9;" horiz-adv-x="1728" d="M92 748q0 -160 60.5 -300.5t166 -246t246 -166t299.5 -60.5q160 0 300.5 60.5t246 166t165.5 246t60 300.5t-60 300t-165.5 245.5t-246 166t-300.5 60.5t-300 -60.5t-245.5 -166t-166 -246t-60.5 -299.5zM162 745q0 145 54 273.5t149.5 224.5t223.5 152.5t275 56.5 t275.5 -56.5t223.5 -152.5t149.5 -224.5t54.5 -273.5t-54.5 -273t-149.5 -223t-223 -150.5t-276 -55.5q-147 0 -275 55.5t-223.5 150.5t-149.5 223t-54 273zM428 752q0 -98 34 -183.5t92 -148t138 -97t172 -34.5q59 0 110.5 14t93.5 36.5t75.5 50t56.5 54.5l-57 52 q-55 -59 -118.5 -93t-162.5 -34q-76 0 -139.5 30.5t-109.5 83t-72.5 123t-26.5 150.5q0 78 25.5 147.5t71.5 120.5t111.5 81t145.5 30t144.5 -30t111.5 -83l58 53q-53 66 -139.5 102.5t-186.5 36.5q-94 0 -173 -36.5t-135 -100t-88 -147.5t-32 -178z" />
<glyph unicode="&#xaa;" horiz-adv-x="862" d="M129 618h582v70h-582v-70zM129 1014q0 -51 19.5 -91t52 -67t78 -41t94.5 -14q80 0 139 27.5t102 66.5v-74h78v492q0 94 -62.5 150.5t-199.5 56.5q-70 0 -128 -14.5t-105 -41.5l30 -65q82 49 203 49q35 0 68.5 -6t59.5 -21.5t41 -43t15 -70.5v-56h-131q-168 0 -261 -58 t-93 -179zM211 1014q0 90 69.5 129t211.5 39h122v-207q-45 -39 -105 -70t-136 -31q-72 0 -117 37t-45 103z" />
<glyph unicode="&#xab;" horiz-adv-x="634" d="M41 446l209 -210h104l-200 210l200 211h-104zM262 446l209 -210h104l-200 210l200 211h-104z" />
<glyph unicode="&#xac;" horiz-adv-x="1495" d="M0 662h86v172h-86v-172zM662 0h172v86h-172v-86zM662 662h172v172h-172v-172zM662 1409h172v86h-172v-86zM1409 662h86v172h-86v-172z" />
<glyph unicode="&#xad;" horiz-adv-x="675" d="M123 422h430v82h-430v-82z" />
<glyph unicode="&#xae;" horiz-adv-x="1728" d="M92 748q0 -160 60.5 -300.5t166 -246t246 -166t299.5 -60.5q160 0 300.5 60.5t246 166t165.5 246t60 300.5t-60 300t-165.5 245.5t-246 166t-300.5 60.5t-300 -60.5t-245.5 -166t-166 -246t-60.5 -299.5zM162 745q0 145 54 273.5t149.5 224.5t223.5 152.5t275 56.5 t275.5 -56.5t223.5 -152.5t149.5 -224.5t54.5 -273.5t-54.5 -273t-149.5 -223t-223 -150.5t-276 -55.5q-147 0 -275 55.5t-223.5 150.5t-149.5 223t-54 273zM625 317h80v420l368 -420h105l-355 396h29q59 0 113.5 15t96.5 46t66.5 79t24.5 114q0 57 -22.5 103t-61.5 79 t-91 49t-110 16h-243v-897zM705 784v355h163q88 0 144.5 -45t56.5 -127q0 -88 -58.5 -135.5t-154.5 -47.5h-151z" />
<glyph unicode="&#xaf;" horiz-adv-x="901" d="M184 991h533v74h-533v-74z" />
<glyph unicode="&#xb0;" horiz-adv-x="765" d="M61 1198q0 -68 26 -126t69 -101t101 -68.5t126 -25.5t126 25.5t101 68.5t69 101t26 126t-26 126t-69 101t-101 69t-126 26t-126 -26t-101 -69t-69 -101t-26 -126zM141 1198q0 51 18.5 95t51.5 77t77 51.5t95 18.5t95 -18.5t77 -51.5t51.5 -77t18.5 -95t-18.5 -95 t-51.5 -77t-77 -51.5t-95 -18.5t-95 18.5t-77 51.5t-51.5 77t-18.5 95z" />
<glyph unicode="&#xb1;" horiz-adv-x="1161" d="M14 748h144v-748h84v748h311v-748h84v748h151v73h-151v479q0 68 23.5 92.5t64.5 24.5h63v78h-69q-72 0 -119 -42t-47 -138v-494h-311v479q0 68 23.5 92.5t64.5 24.5h63v78h-69q-72 0 -119 -42t-47 -138v-494h-144v-73zM944 0h84v1495h-84v-1495z" />
<glyph unicode="&#xb2;" horiz-adv-x="862" d="M150 721h518v82h-338l233 280q43 51 72 97.5t29 105.5q0 104 -66 167t-176 63q-92 0 -162 -61.5t-84 -168.5h88q12 74 53 111t105 37q70 0 110.5 -40t40.5 -104q0 -47 -21.5 -80.5t-53.5 -72.5z" />
<glyph unicode="&#xb3;" horiz-adv-x="825" d="M131 848q49 -66 121 -106t160 -40q123 0 192.5 67t69.5 179q0 66 -33 116t-88 77q43 29 67.5 71.5t24.5 102.5q0 45 -18.5 82t-49 63.5t-72.5 41t-87 14.5q-76 0 -136.5 -33t-113.5 -105l72 -43q68 96 176 97q59 0 99 -34t40 -89q0 -63 -44 -97t-122 -34h-76v-82h78 q98 0 146.5 -41t48.5 -113q0 -78 -49.5 -117t-122.5 -39q-66 0 -118 29t-99 86z" />
<glyph unicode="&#xb4;" horiz-adv-x="901" d="M301 991h96l168 266h-96z" />
<glyph unicode="&#xb6;" horiz-adv-x="1263" d="M55 993q0 -98 40 -186t109.5 -155.5t163 -106.5t197.5 -39h203v-873h88v1784h172v-1784h88v1862h-530q-119 0 -217.5 -38t-168 -105.5t-107.5 -159.5t-38 -199zM147 1006q0 88 32 162.5t91.5 130t141.5 87t184 31.5h172v-833h-164q-102 0 -187 31.5t-144.5 88t-92.5 134 t-33 168.5z" />
<glyph unicode="&#xb7;" horiz-adv-x="337" d="M123 649h92v172h-92v-172z" />
<glyph unicode="&#xb8;" horiz-adv-x="901" d="M213 -301q29 -25 82 -45.5t104 -20.5q37 0 71 8.5t60.5 27t43 48t16.5 70.5q0 57 -50.5 91t-127.5 26l90 123h-88l-121 -160l22 -35q18 8 42 12t46 4q53 0 77 -20.5t24 -52.5q0 -39 -30 -56.5t-73 -17.5q-37 0 -82 15.5t-67 33.5z" />
<glyph unicode="&#xb9;" horiz-adv-x="626" d="M160 1282q41 4 76.5 21.5t54.5 46.5v-650h90v795h-78q-18 -51 -55 -86t-88 -41v-86z" />
<glyph unicode="&#xba;" horiz-adv-x="974" d="M123 1163q0 -80 27.5 -145.5t76.5 -113.5t115 -74.5t139 -26.5q74 0 139.5 26.5t114.5 74.5t77 113.5t28 145.5t-28 145.5t-77 112.5t-114.5 74t-139.5 27t-139.5 -27t-114.5 -74t-76.5 -112.5t-27.5 -145.5zM137 618h688v70h-688v-70zM205 1163q0 61 21.5 113.5 t58.5 90.5t87 59.5t109 21.5t109.5 -21.5t87.5 -59.5t58.5 -90.5t21.5 -113.5t-21.5 -114.5t-58.5 -91t-87 -60.5t-110 -23q-59 0 -109 23t-87 60.5t-58.5 91t-21.5 114.5z" />
<glyph unicode="&#xbb;" horiz-adv-x="634" d="M59 236h105l209 210l-209 211h-105l201 -211zM281 236h104l209 210l-209 211h-104l200 -211z" />
<glyph unicode="&#xbc;" horiz-adv-x="1695" d="M162 1282q41 4 76.5 21.5t54.5 46.5v-650h90v795h-78q-18 -51 -55 -86t-88 -41v-86zM215 0h100l1022 1495h-100zM909 201h342v-201h86v201h121v82h-121v505h-57l-371 -528v-59zM1024 283l227 321v-321h-227z" />
<glyph unicode="&#xbd;" horiz-adv-x="1695" d="M162 1282q41 4 76.5 21.5t54.5 46.5v-650h90v795h-78q-18 -51 -55 -86t-88 -41v-86zM215 0h100l1022 1495h-100zM995 0h518v82h-337l233 280q43 51 71.5 97.5t28.5 105.5q0 104 -65.5 167t-175.5 63q-92 0 -162 -61.5t-84 -168.5h88q12 74 53 111t105 37q70 0 110.5 -40 t40.5 -104q0 -47 -21.5 -80.5t-54.5 -72.5z" />
<glyph unicode="&#xbe;" horiz-adv-x="1697" d="M131 848q49 -66 121 -106t160 -40q123 0 192.5 67t69.5 179q0 66 -33 116t-88 77q43 29 67.5 71.5t24.5 102.5q0 45 -18.5 82t-49 63.5t-72.5 41t-87 14.5q-76 0 -136.5 -33t-113.5 -105l72 -43q68 96 176 97q59 0 99 -34t40 -89q0 -63 -44 -97t-122 -34h-76v-82h78 q98 0 146.5 -41t48.5 -113q0 -78 -49.5 -117t-122.5 -39q-66 0 -118 29t-99 86zM328 0h100l1022 1495h-100zM1012 201h342v-201h86v201h121v82h-121v505h-58l-370 -528v-59zM1126 283l228 321v-321h-228z" />
<glyph unicode="&#xbf;" horiz-adv-x="894" d="M96 328q0 -74 29 -138.5t79 -112.5t119.5 -75t151.5 -27q113 0 205 51.5t147 157.5l-69 54q-43 -86 -116 -131.5t-167 -45.5q-59 0 -110.5 21.5t-90 59.5t-60 88.5t-21.5 109.5q0 92 48 176t109 174q33 49 67 101.5t59.5 108.5t42 116.5t16.5 128.5v82h-93v-92 q0 -100 -49 -204t-112 -190q-35 -47 -68 -95t-58.5 -99t-42 -105.5t-16.5 -113.5zM442 1323h93v172h-93v-172z" />
<glyph unicode="&#xc0;" horiz-adv-x="1282" d="M61 0h99l205 573h553l204 -573h99l-553 1520h-52zM393 655l248 695l248 -695h-496zM416 1884l168 -266h96l-168 266h-96z" />
<glyph unicode="&#xc1;" horiz-adv-x="1282" d="M61 0h99l205 573h553l204 -573h99l-553 1520h-52zM393 655l248 695l248 -695h-496zM588 1618h96l168 266h-96z" />
<glyph unicode="&#xc2;" horiz-adv-x="1282" d="M61 0h99l205 573h553l204 -573h99l-553 1520h-52zM393 655l248 695l248 -695h-496zM395 1597h101l139 175l139 -175h100l-206 254h-66z" />
<glyph unicode="&#xc3;" horiz-adv-x="1282" d="M61 0h99l205 573h553l204 -573h99l-553 1520h-52zM383 1618h84q2 39 17.5 61.5t47.5 22.5q23 0 48.5 -12.5t54.5 -28.5q31 -18 63.5 -32.5t67.5 -14.5q84 0 114.5 45t34.5 117h-84q-2 -39 -17 -61.5t-48 -22.5q-23 0 -50.5 14t-60.5 33q-29 16 -60.5 28.5t-62.5 12.5 q-84 0 -114.5 -46t-34.5 -116zM393 655l248 695l248 -695h-496z" />
<glyph unicode="&#xc4;" horiz-adv-x="1282" d="M61 0h99l205 573h553l204 -573h99l-553 1520h-52zM246 1323h94v172h-94v-172zM393 655l248 695l248 -695h-496zM944 1323h94v172h-94v-172z" />
<glyph unicode="&#xc5;" horiz-adv-x="1282" d="M61 0h99l205 573h553l204 -573h99l-531 1458q66 16 108 68.5t42 122.5q0 82 -57.5 139t-139.5 57t-139.5 -57t-57.5 -139q0 -70 42 -122t106 -69zM393 655l248 695l248 -695h-496zM520 1649q0 51 36 87t87 36t87 -36t36 -87t-36 -87t-87 -36t-87 35.5t-36 87.5z" />
<glyph unicode="&#xc6;" horiz-adv-x="1835" d="M29 0h94l287 492h526v-492h795v82h-703v666h598v81h-598v584h664v82h-797zM457 573l479 834v-834h-479z" />
<glyph unicode="&#xc7;" horiz-adv-x="1462" d="M92 748q0 -158 52.5 -295.5t143.5 -239.5t215 -164.5t267 -71.5l-84 -110l23 -35q18 8 41.5 12t46.5 4q53 0 76.5 -20.5t23.5 -52.5q0 -39 -29.5 -56.5t-72.5 -17.5q-37 0 -82 15.5t-68 33.5l-39 -51q29 -25 82 -45.5t105 -20.5q37 0 70.5 8.5t60 27t43 48t16.5 70.5 q0 57 -50 91t-128 26l53 73q94 4 173 30t143.5 62.5t114.5 82t87 88.5l-63 55q-49 -53 -100.5 -96t-111 -74t-128 -47.5t-154.5 -16.5q-135 0 -250.5 53.5t-199.5 146.5t-132.5 219t-48.5 274q0 133 46.5 256t129 217t197.5 150.5t252 56.5q152 0 267.5 -55.5t201.5 -153.5 l66 59q-88 111 -227.5 173.5t-305.5 62.5q-154 0 -286 -63.5t-229 -170t-152.5 -246t-55.5 -292.5z" />
<glyph unicode="&#xc8;" horiz-adv-x="1062" d="M164 0h794v82h-702v666h598v81h-598v584h664v82h-756v-1495zM340 1884l168 -266h96l-168 266h-96z" />
<glyph unicode="&#xc9;" horiz-adv-x="1062" d="M164 0h794v82h-702v666h598v81h-598v584h664v82h-756v-1495zM440 1618h97l168 266h-97z" />
<glyph unicode="&#xca;" horiz-adv-x="1062" d="M164 0h794v82h-702v666h598v81h-598v584h664v82h-756v-1495zM299 1618h100l140 174l139 -174h100l-207 254h-65z" />
<glyph unicode="&#xcb;" horiz-adv-x="1062" d="M164 0h794v82h-702v666h598v81h-598v584h664v82h-756v-1495zM332 1618h94v172h-94v-172zM651 1618h94v172h-94v-172z" />
<glyph unicode="&#xcc;" horiz-adv-x="419" d="M-8 1905l168 -267h96l-168 267h-96zM164 0h92v1495h-92v-1495z" />
<glyph unicode="&#xcd;" horiz-adv-x="419" d="M160 1618h96l168 266h-96zM164 0h92v1495h-92v-1495z" />
<glyph unicode="&#xce;" horiz-adv-x="419" d="M-33 1597h101l139 175l139 -175h100l-206 254h-66zM164 0h92v1495h-92v-1495z" />
<glyph unicode="&#xcf;" horiz-adv-x="419" d="M18 1618h95v172h-95v-172zM164 0h92v1495h-92v-1495zM307 1618h94v172h-94v-172z" />
<glyph unicode="&#xd0;" horiz-adv-x="1376" d="M78 739h123v-739h307q160 0 300 52t246.5 150.5t168 240t61.5 319.5t-61.5 315t-168 230.5t-246.5 140.5t-300 47h-307v-674h-123v-82zM293 82v657h338v82h-338v592h239q139 0 259 -44t208 -128t138.5 -204.5t50.5 -274.5t-50.5 -280t-138.5 -215t-207.5 -137t-259.5 -48 h-239z" />
<glyph unicode="&#xd1;" horiz-adv-x="1492" d="M164 0h92v1266q0 45 -2 78l-2 32l971 -1376h106v1495h-92v-1259q0 -45 2 -78l2 -33l-962 1370h-115v-1495zM516 1597h84q2 39 17.5 61.5t48.5 22.5q23 0 48 -12t54 -29q31 -18 63.5 -32.5t67.5 -14.5q84 0 115 45t35 117h-84q-2 -39 -17.5 -61.5t-48.5 -22.5 q-23 0 -50.5 14.5t-60.5 32.5q-29 16 -60.5 28.5t-61.5 12.5q-84 0 -115 -46t-35 -116z" />
<glyph unicode="&#xd2;" d="M92 748q0 -164 57.5 -305.5t157 -245t234.5 -163t290 -59.5q156 0 290 59.5t233.5 164t156 246t56.5 305.5t-56.5 304t-156 243.5t-233.5 163t-290 59.5t-290.5 -59.5t-234 -163t-157 -245t-57.5 -304.5zM188 748q0 145 49.5 271t136.5 218t204.5 144.5t252.5 52.5 q137 0 254 -52.5t203 -144.5t134 -218t48 -271t-49 -271.5t-135 -218.5t-202.5 -144.5t-252.5 -52.5q-135 0 -252.5 52.5t-204.5 144.5t-136.5 218t-49.5 272zM614 1884l168 -266h97l-168 266h-97z" />
<glyph unicode="&#xd3;" d="M92 748q0 -164 57.5 -305.5t157 -245t234.5 -163t290 -59.5q156 0 290 59.5t233.5 164t156 246t56.5 305.5t-56.5 304t-156 243.5t-233.5 163t-290 59.5t-290.5 -59.5t-234 -163t-157 -245t-57.5 -304.5zM188 748q0 145 49.5 271t136.5 218t204.5 144.5t252.5 52.5 q137 0 254 -52.5t203 -144.5t134 -218t48 -271t-49 -271.5t-135 -218.5t-202.5 -144.5t-252.5 -52.5q-135 0 -252.5 52.5t-204.5 144.5t-136.5 218t-49.5 272zM762 1618h96l168 266h-96z" />
<glyph unicode="&#xd4;" d="M92 748q0 -164 57.5 -305.5t157 -245t234.5 -163t290 -59.5q156 0 290 59.5t233.5 164t156 246t56.5 305.5t-56.5 304t-156 243.5t-233.5 163t-290 59.5t-290.5 -59.5t-234 -163t-157 -245t-57.5 -304.5zM188 748q0 145 49.5 271t136.5 218t204.5 144.5t252.5 52.5 q137 0 254 -52.5t203 -144.5t134 -218t48 -271t-49 -271.5t-135 -218.5t-202.5 -144.5t-252.5 -52.5q-135 0 -252.5 52.5t-204.5 144.5t-136.5 218t-49.5 272zM578 1618h100l139 174l139 -174h101l-207 254h-66z" />
<glyph unicode="&#xd5;" d="M92 748q0 -164 57.5 -305.5t157 -245t234.5 -163t290 -59.5q156 0 290 59.5t233.5 164t156 246t56.5 305.5t-56.5 304t-156 243.5t-233.5 163t-290 59.5t-290.5 -59.5t-234 -163t-157 -245t-57.5 -304.5zM188 748q0 145 49.5 271t136.5 218t204.5 144.5t252.5 52.5 q137 0 254 -52.5t203 -144.5t134 -218t48 -271t-49 -271.5t-135 -218.5t-202.5 -144.5t-252.5 -52.5q-135 0 -252.5 52.5t-204.5 144.5t-136.5 218t-49.5 272zM553 1618h84q2 39 17.5 61.5t47.5 22.5q23 0 48.5 -12.5t54.5 -28.5q31 -18 63.5 -32.5t67.5 -14.5 q84 0 114.5 45t34.5 117h-84q-2 -39 -17 -61.5t-48 -22.5q-23 0 -50.5 14t-60.5 33q-29 16 -60.5 28.5t-62.5 12.5q-84 0 -114.5 -46t-34.5 -116z" />
<glyph unicode="&#xd6;" d="M84 1323h94v172h-94v-172zM92 748q0 -164 57.5 -305.5t157 -245t234.5 -163t290 -59.5q156 0 290 59.5t233.5 164t156 246t56.5 305.5t-56.5 304t-156 243.5t-233.5 163t-290 59.5t-290.5 -59.5t-234 -163t-157 -245t-57.5 -304.5zM188 748q0 145 49.5 271t136.5 218 t204.5 144.5t252.5 52.5q137 0 254 -52.5t203 -144.5t134 -218t48 -271t-49 -271.5t-135 -218.5t-202.5 -144.5t-252.5 -52.5q-135 0 -252.5 52.5t-204.5 144.5t-136.5 218t-49.5 272zM1481 1323h94v172h-94v-172z" />
<glyph unicode="&#xd7;" horiz-adv-x="989" d="M154 956l282 -282l-280 -281l57 -57l281 280l278 -278l57 57l-278 279l287 287l-58 57l-286 -287l-283 283z" />
<glyph unicode="&#xd8;" d="M92 748q0 -160 54.5 -297.5t148.5 -241.5l-160 -180l60 -54l157 179q98 -86 219 -132.5t260 -46.5q156 0 290 59.5t233.5 164t156 246t56.5 305.5q0 162 -53.5 299t-151.5 241l160 180l-64 50l-153 -174q-96 84 -216 129t-258 45q-156 0 -290.5 -59.5t-234 -163 t-157 -245t-57.5 -304.5zM188 748q0 145 49.5 271t136.5 218t204.5 144.5t252.5 52.5q123 0 227.5 -41t186.5 -113l-889 -1001q-78 92 -123 210.5t-45 258.5zM412 221l888 1002q80 -92 125 -213t45 -262q0 -145 -49 -271.5t-135 -218.5t-202.5 -144.5t-252.5 -52.5 q-123 0 -228 42t-191 118z" />
<glyph unicode="&#xd9;" horiz-adv-x="1374" d="M154 543q0 -129 41 -233.5t113.5 -178.5t169.5 -115t208 -41t209 41t170 115t114 178.5t42 233.5v952h-93v-952q0 -102 -34.5 -190.5t-95 -153t-140.5 -101.5t-172 -37t-172 37t-139.5 101.5t-94 152.5t-34.5 191v952h-92v-952zM492 1864l167 -267h97l-168 267h-96z" />
<glyph unicode="&#xda;" horiz-adv-x="1374" d="M154 543q0 -129 41 -233.5t113.5 -178.5t169.5 -115t208 -41t209 41t170 115t114 178.5t42 233.5v952h-93v-952q0 -102 -34.5 -190.5t-95 -153t-140.5 -101.5t-172 -37t-172 37t-139.5 101.5t-94 152.5t-34.5 191v952h-92v-952zM594 1597h96l168 267h-96z" />
<glyph unicode="&#xdb;" horiz-adv-x="1374" d="M154 543q0 -129 41 -233.5t113.5 -178.5t169.5 -115t208 -41t209 41t170 115t114 178.5t42 233.5v952h-93v-952q0 -102 -34.5 -190.5t-95 -153t-140.5 -101.5t-172 -37t-172 37t-139.5 101.5t-94 152.5t-34.5 191v952h-92v-952zM451 1597h100l139 175l139 -175h101 l-207 254h-66z" />
<glyph unicode="&#xdc;" horiz-adv-x="1374" d="M154 543q0 -129 41 -233.5t113.5 -178.5t169.5 -115t208 -41t209 41t170 115t114 178.5t42 233.5v952h-93v-952q0 -102 -34.5 -190.5t-95 -153t-140.5 -101.5t-172 -37t-172 37t-139.5 101.5t-94 152.5t-34.5 191v952h-92v-952zM479 1323h94v172h-94v-172zM799 1323h94 v172h-94v-172z" />
<glyph unicode="&#xdd;" horiz-adv-x="1286" d="M57 1495l537 -780v-715h92v713l543 782h-105l-479 -696l-481 696h-107zM561 1597h96l168 267h-96z" />
<glyph unicode="&#xde;" horiz-adv-x="1071" d="M164 0h92v358h236q121 0 214 32t155.5 90.5t95 139.5t32.5 177q0 88 -30.5 162.5t-93 128t-156 84t-217.5 30.5h-236v293h-92v-1495zM256 440v680h219q219 0 318.5 -88t99.5 -244q0 -72 -20.5 -135t-66.5 -110t-119 -75t-175 -28h-256z" />
<glyph unicode="&#xdf;" horiz-adv-x="903" d="M133 0h84v1196q0 115 56.5 180.5t152.5 65.5q100 0 166.5 -57.5t66.5 -184.5q0 -72 -26.5 -127t-69.5 -94t-98 -59.5t-111 -22.5v-63q74 -12 144.5 -54.5t126 -109t89.5 -152.5t34 -188q0 -57 -16.5 -107.5t-46.5 -88.5t-70 -59.5t-87 -21.5q-57 0 -93 8.5t-64 24.5 l-37 -66q27 -18 76 -31.5t118 -13.5q72 0 128.5 30t96.5 79t61.5 112.5t21.5 133.5q0 100 -32 188t-81 157.5t-107.5 118t-113.5 66.5q51 18 96 50t79 76t52.5 98.5t18.5 115.5q0 82 -27 142.5t-72 99.5t-101 58.5t-116 19.5q-147 0 -223 -91.5t-76 -236.5v-1192z" />
<glyph unicode="&#xe0;" horiz-adv-x="872" d="M72 233q0 -63 23.5 -111t63.5 -81t93 -49.5t115 -16.5q98 0 173.5 36t129.5 83v-94h84v596q0 113 -76 181.5t-242 68.5q-86 0 -155.5 -17.5t-126.5 -50.5l34 -69q98 59 248 59q43 0 85 -6t75 -25.5t53.5 -55.5t20.5 -93v-68h-168q-205 0 -317.5 -70.5t-112.5 -216.5z M160 233q0 115 91 164t259 49h160v-268q-53 -47 -132 -86t-171 -39q-86 0 -146.5 47t-60.5 133zM240 1257l168 -266h96l-168 266h-96z" />
<glyph unicode="&#xe1;" horiz-adv-x="872" d="M72 233q0 -63 23.5 -111t63.5 -81t93 -49.5t115 -16.5q98 0 173.5 36t129.5 83v-94h84v596q0 113 -76 181.5t-242 68.5q-86 0 -155.5 -17.5t-126.5 -50.5l34 -69q98 59 248 59q43 0 85 -6t75 -25.5t53.5 -55.5t20.5 -93v-68h-168q-205 0 -317.5 -70.5t-112.5 -216.5z M160 233q0 115 91 164t259 49h160v-268q-53 -47 -132 -86t-171 -39q-86 0 -146.5 47t-60.5 133zM350 991h96l168 266h-96z" />
<glyph unicode="&#xe2;" horiz-adv-x="872" d="M72 233q0 -63 23.5 -111t63.5 -81t93 -49.5t115 -16.5q98 0 173.5 36t129.5 83v-94h84v596q0 113 -76 181.5t-242 68.5q-86 0 -155.5 -17.5t-126.5 -50.5l34 -69q98 59 248 59q43 0 85 -6t75 -25.5t53.5 -55.5t20.5 -93v-68h-168q-205 0 -317.5 -70.5t-112.5 -216.5z M160 233q0 115 91 164t259 49h160v-268q-53 -47 -132 -86t-171 -39q-86 0 -146.5 47t-60.5 133zM190 991h101l139 174l139 -174h101l-207 254h-66z" />
<glyph unicode="&#xe3;" horiz-adv-x="872" d="M72 233q0 -63 23.5 -111t63.5 -81t93 -49.5t115 -16.5q98 0 173.5 36t129.5 83v-94h84v596q0 113 -76 181.5t-242 68.5q-86 0 -155.5 -17.5t-126.5 -50.5l34 -69q98 59 248 59q43 0 85 -6t75 -25.5t53.5 -55.5t20.5 -93v-68h-168q-205 0 -317.5 -70.5t-112.5 -216.5z M160 233q0 115 91 164t259 49h160v-268q-53 -47 -132 -86t-171 -39q-86 0 -146.5 47t-60.5 133zM166 991h84q2 39 17.5 61.5t47.5 22.5q23 0 48.5 -12t54.5 -29q31 -18 63.5 -32.5t67.5 -14.5q84 0 114.5 45t34.5 117h-84q-2 -39 -17 -61.5t-48 -22.5q-23 0 -50.5 14.5 t-60.5 32.5q-29 16 -60.5 28.5t-62.5 12.5q-84 0 -114.5 -46t-34.5 -116z" />
<glyph unicode="&#xe4;" horiz-adv-x="872" d="M72 233q0 -63 23.5 -111t63.5 -81t93 -49.5t115 -16.5q98 0 173.5 36t129.5 83v-94h84v596q0 113 -76 181.5t-242 68.5q-86 0 -155.5 -17.5t-126.5 -50.5l34 -69q98 59 248 59q43 0 85 -6t75 -25.5t53.5 -55.5t20.5 -93v-68h-168q-205 0 -317.5 -70.5t-112.5 -216.5z M160 233q0 115 91 164t259 49h160v-268q-53 -47 -132 -86t-171 -39q-86 0 -146.5 47t-60.5 133zM221 991h94v172h-94v-172zM541 991h94v172h-94v-172z" />
<glyph unicode="&#xe5;" horiz-adv-x="872" d="M72 233q0 -63 23.5 -111t63.5 -81t93 -49.5t115 -16.5q98 0 173.5 36t129.5 83v-94h84v596q0 113 -76 181.5t-242 68.5q-86 0 -155.5 -17.5t-126.5 -50.5l34 -69q98 59 248 59q43 0 85 -6t75 -25.5t53.5 -55.5t20.5 -93v-68h-168q-205 0 -317.5 -70.5t-112.5 -216.5z M160 233q0 115 91 164t259 49h160v-268q-53 -47 -132 -86t-171 -39q-86 0 -146.5 47t-60.5 133zM236 1174q0 -82 57 -139.5t139 -57.5t139.5 57.5t57.5 139.5t-57.5 139t-139.5 57t-139 -57.5t-57 -138.5zM305 1174q0 53 37 89.5t90 36.5t90 -36.5t37 -89.5t-37 -90t-90 -37 t-90 36.5t-37 90.5z" />
<glyph unicode="&#xe6;" horiz-adv-x="1490" d="M72 233q0 -63 23.5 -111t63.5 -81t93 -49.5t115 -16.5q113 0 213 53.5t165 125.5q41 -72 131.5 -125.5t208.5 -53.5q66 0 117 13.5t91 35t70 48t52 53.5l-59 51q-57 -59 -115.5 -91t-150.5 -32q-80 0 -141.5 29t-104.5 78t-65.5 116.5t-22.5 145.5h678q-4 80 -26 155.5 t-66 135t-111.5 96.5t-163.5 37q-111 0 -198 -48t-130 -134q-10 84 -85.5 133t-217.5 49q-86 0 -155.5 -17.5t-126.5 -50.5l34 -69q98 59 248 59q43 0 85 -5t76 -25.5t55.5 -60.5t21.5 -110v-71h-193q-94 0 -169.5 -14.5t-129 -45t-82 -81t-28.5 -122.5zM160 233 q0 109 87 149t242 40h185q0 -111 33 -197q-23 -29 -58 -59.5t-79 -55t-96 -41t-107 -16.5q-86 0 -146.5 47t-60.5 133zM760 496q8 55 30.5 104t60.5 87t90 59.5t122 21.5q68 0 117 -24.5t81.5 -63.5t49 -88t20.5 -96h-571z" />
<glyph unicode="&#xe7;" horiz-adv-x="876" d="M68 414q0 -86 26.5 -162t74.5 -133.5t114.5 -95t144.5 -46.5l-84 -110l23 -35q18 8 41.5 12t46.5 4q53 0 76.5 -20.5t23.5 -52.5q0 -39 -29.5 -56.5t-72.5 -17.5q-37 0 -82 15.5t-68 33.5l-39 -51q29 -25 82 -45.5t105 -20.5q37 0 70.5 8.5t60 27t43 48t16.5 70.5 q0 57 -50 91t-128 26l53 73q104 10 181 66.5t128 134.5l-65 43q-53 -78 -123 -123t-168 -45q-68 0 -125 29t-99 79t-65.5 116.5t-23.5 140.5q0 72 23.5 135t66.5 111.5t103.5 76t131.5 27.5q86 0 149.5 -36t112.5 -97l68 53q-23 27 -54.5 55.5t-72.5 51t-94 37t-121 14.5 q-84 0 -157.5 -34t-128 -92t-85 -137t-30.5 -169z" />
<glyph unicode="&#xe8;" horiz-adv-x="909" d="M68 424q0 -88 25.5 -169t76.5 -143.5t130 -99.5t183 -37q66 0 120 13.5t98 35t77 48t56 53.5l-60 51q-57 -59 -125.5 -91t-161.5 -32q-80 0 -141 29t-103 78t-64.5 116.5t-22.5 145.5h696q-4 80 -26.5 155.5t-68.5 135t-117 96.5t-169 37q-102 0 -178 -36t-126 -95.5 t-74.5 -135t-24.5 -155.5zM160 496q8 55 30.5 104t59.5 87t91 59.5t126 21.5q68 0 119 -24.5t87 -63.5t54.5 -88t22.5 -96h-590zM250 1257l168 -266h96l-168 266h-96z" />
<glyph unicode="&#xe9;" horiz-adv-x="909" d="M68 424q0 -88 25.5 -169t76.5 -143.5t130 -99.5t183 -37q66 0 120 13.5t98 35t77 48t56 53.5l-60 51q-57 -59 -125.5 -91t-161.5 -32q-80 0 -141 29t-103 78t-64.5 116.5t-22.5 145.5h696q-4 80 -26.5 155.5t-68.5 135t-117 96.5t-169 37q-102 0 -178 -36t-126 -95.5 t-74.5 -135t-24.5 -155.5zM160 496q8 55 30.5 104t59.5 87t91 59.5t126 21.5q68 0 119 -24.5t87 -63.5t54.5 -88t22.5 -96h-590zM393 991h96l168 266h-96z" />
<glyph unicode="&#xea;" horiz-adv-x="909" d="M68 424q0 -88 25.5 -169t76.5 -143.5t130 -99.5t183 -37q66 0 120 13.5t98 35t77 48t56 53.5l-60 51q-57 -59 -125.5 -91t-161.5 -32q-80 0 -141 29t-103 78t-64.5 116.5t-22.5 145.5h696q-4 80 -26.5 155.5t-68.5 135t-117 96.5t-169 37q-102 0 -178 -36t-126 -95.5 t-74.5 -135t-24.5 -155.5zM160 496q8 55 30.5 104t59.5 87t91 59.5t126 21.5q68 0 119 -24.5t87 -63.5t54.5 -88t22.5 -96h-590zM223 971h101l139 174l139 -174h100l-206 254h-66z" />
<glyph unicode="&#xeb;" horiz-adv-x="909" d="M68 424q0 -88 25.5 -169t76.5 -143.5t130 -99.5t183 -37q66 0 120 13.5t98 35t77 48t56 53.5l-60 51q-57 -59 -125.5 -91t-161.5 -32q-80 0 -141 29t-103 78t-64.5 116.5t-22.5 145.5h696q-4 80 -26.5 155.5t-68.5 135t-117 96.5t-169 37q-102 0 -178 -36t-126 -95.5 t-74.5 -135t-24.5 -155.5zM160 496q8 55 30.5 104t59.5 87t91 59.5t126 21.5q68 0 119 -24.5t87 -63.5t54.5 -88t22.5 -96h-590zM254 991h94v172h-94v-172zM573 991h95v172h-95v-172z" />
<glyph unicode="&#xec;" horiz-adv-x="350" d="M-45 1257l168 -266h96l-168 266h-96zM133 0h84v821h-84v-821z" />
<glyph unicode="&#xed;" horiz-adv-x="350" d="M127 991h96l168 266h-96zM133 0h84v821h-84v-821z" />
<glyph unicode="&#xee;" horiz-adv-x="350" d="M-68 971h101l139 174l139 -174h101l-207 254h-66zM133 0h84v821h-84v-821z" />
<glyph unicode="&#xef;" horiz-adv-x="350" d="M0 991h94v172h-94v-172zM133 0h84v821h-84v-821zM256 991h94v172h-94v-172z" />
<glyph unicode="&#xf0;" horiz-adv-x="1028" d="M68 432q0 -104 34.5 -188t93 -144.5t137.5 -92.5t169 -32q117 0 203 42t142 109t85 147.5t29 160.5q0 98 -19.5 203.5t-57.5 212t-95.5 211t-133.5 201.5l133 55l-30 65l-152 -61q-102 117 -231 213l-51 -55q59 -45 110 -92.5t96 -96.5l-258 -104l33 -66l275 111 q61 -76 106 -153t77 -148.5t51.5 -134t27.5 -107.5q-57 78 -144.5 118t-185.5 40q-88 0 -169 -33t-142.5 -88t-97 -131t-35.5 -162zM156 412q0 78 27.5 143.5t75.5 112.5t113.5 73.5t139.5 26.5t139.5 -26.5t113.5 -73.5t75.5 -112.5t27.5 -143.5t-27.5 -143.5t-75.5 -114 t-113.5 -75t-139.5 -26.5t-139.5 26.5t-113.5 75t-75.5 114t-27.5 143.5z" />
<glyph unicode="&#xf1;" horiz-adv-x="917" d="M133 0h84v504q0 47 19.5 95t55.5 86t86 62.5t111 24.5q109 0 167.5 -65.5t58.5 -163.5v-543h84v555q0 61 -20.5 114.5t-59.5 92.5t-96.5 61.5t-128.5 22.5q-92 0 -165 -44t-112 -116v135h-84v-821zM195 991h84q2 39 17 61.5t48 22.5q23 0 48.5 -12t53.5 -29 q31 -18 64 -32.5t68 -14.5q84 0 114.5 45t34.5 117h-84q-2 -39 -17.5 -61.5t-47.5 -22.5q-23 0 -50.5 14.5t-60.5 32.5q-29 16 -60.5 28.5t-62.5 12.5q-84 0 -114.5 -46t-34.5 -116z" />
<glyph unicode="&#xf2;" horiz-adv-x="1003" d="M68 412q0 -96 33.5 -176t93 -138.5t138.5 -90.5t169 -32t169 32t138 90.5t93 138.5t34 176t-34 176t-93 137t-138 89t-169 32t-169 -32t-138.5 -89t-93 -137t-33.5 -176zM156 412q0 78 26.5 143.5t72.5 112.5t109.5 73.5t137.5 26.5t137 -26.5t109.5 -73.5t73 -112.5 t26.5 -143.5t-26.5 -143.5t-73 -114t-110 -75t-136.5 -26.5q-74 0 -137.5 26.5t-109.5 75t-72.5 114t-26.5 143.5zM279 1257l167 -266h97l-168 266h-96z" />
<glyph unicode="&#xf3;" horiz-adv-x="1003" d="M68 412q0 -96 33.5 -176t93 -138.5t138.5 -90.5t169 -32t169 32t138 90.5t93 138.5t34 176t-34 176t-93 137t-138 89t-169 32t-169 -32t-138.5 -89t-93 -137t-33.5 -176zM156 412q0 78 26.5 143.5t72.5 112.5t109.5 73.5t137.5 26.5t137 -26.5t109.5 -73.5t73 -112.5 t26.5 -143.5t-26.5 -143.5t-73 -114t-110 -75t-136.5 -26.5q-74 0 -137.5 26.5t-109.5 75t-72.5 114t-26.5 143.5zM428 991h96l168 266h-96z" />
<glyph unicode="&#xf4;" horiz-adv-x="1003" d="M68 412q0 -96 33.5 -176t93 -138.5t138.5 -90.5t169 -32t169 32t138 90.5t93 138.5t34 176t-34 176t-93 137t-138 89t-169 32t-169 -32t-138.5 -89t-93 -137t-33.5 -176zM156 412q0 78 26.5 143.5t72.5 112.5t109.5 73.5t137.5 26.5t137 -26.5t109.5 -73.5t73 -112.5 t26.5 -143.5t-26.5 -143.5t-73 -114t-110 -75t-136.5 -26.5q-74 0 -137.5 26.5t-109.5 75t-72.5 114t-26.5 143.5zM254 971h100l140 174l139 -174h100l-207 254h-65z" />
<glyph unicode="&#xf5;" horiz-adv-x="1003" d="M68 412q0 -96 33.5 -176t93 -138.5t138.5 -90.5t169 -32t169 32t138 90.5t93 138.5t34 176t-34 176t-93 137t-138 89t-169 32t-169 -32t-138.5 -89t-93 -137t-33.5 -176zM156 412q0 78 26.5 143.5t72.5 112.5t109.5 73.5t137.5 26.5t137 -26.5t109.5 -73.5t73 -112.5 t26.5 -143.5t-26.5 -143.5t-73 -114t-110 -75t-136.5 -26.5q-74 0 -137.5 26.5t-109.5 75t-72.5 114t-26.5 143.5zM227 991h84q2 39 17.5 61.5t48.5 22.5q23 0 48.5 -12t53.5 -29q31 -18 63.5 -32.5t67.5 -14.5q84 0 115 45t35 117h-84q-2 -39 -17.5 -61.5t-48.5 -22.5 q-23 0 -50.5 14.5t-59.5 32.5q-29 16 -60.5 28.5t-62.5 12.5q-84 0 -115 -46t-35 -116z" />
<glyph unicode="&#xf6;" horiz-adv-x="1003" d="M68 412q0 -96 33.5 -176t93 -138.5t138.5 -90.5t169 -32t169 32t138 90.5t93 138.5t34 176t-34 176t-93 137t-138 89t-169 32t-169 -32t-138.5 -89t-93 -137t-33.5 -176zM156 412q0 78 26.5 143.5t72.5 112.5t109.5 73.5t137.5 26.5t137 -26.5t109.5 -73.5t73 -112.5 t26.5 -143.5t-26.5 -143.5t-73 -114t-110 -75t-136.5 -26.5q-74 0 -137.5 26.5t-109.5 75t-72.5 114t-26.5 143.5zM283 991h94v172h-94v-172zM602 991h94v172h-94v-172z" />
<glyph unicode="&#xf7;" horiz-adv-x="1495" d="M0 662h86v172h-86v-172zM662 0h172v86h-172v-86zM662 662h172v172h-172v-172zM662 1409h172v86h-172v-86zM1409 662h86v172h-86v-172z" />
<glyph unicode="&#xf8;" horiz-adv-x="1003" d="M68 412q0 -88 27.5 -162t76.5 -129l-90 -92l53 -54l92 95q55 -45 126 -70t149 -25q90 0 169 32t138 90.5t93 138t34 176.5q0 84 -25.5 154.5t-70.5 125.5l102 105l-57 49l-99 -101q-57 47 -129.5 74t-154.5 27q-90 0 -169 -32t-138.5 -89t-93 -137t-33.5 -176zM156 412 q0 78 26.5 143.5t72.5 112.5t109.5 73.5t137.5 26.5q133 0 227 -82l-498 -506q-35 47 -55 105.5t-20 126.5zM285 127l495 504q33 -45 50.5 -99t17.5 -120q0 -78 -26.5 -143.5t-73 -114t-110 -75t-136.5 -26.5q-127 0 -217 74z" />
<glyph unicode="&#xf9;" horiz-adv-x="917" d="M119 266q0 -61 20.5 -114.5t59.5 -92.5t96 -61.5t129 -22.5q92 0 165 44t111 116v-135h84v821h-84v-504q0 -47 -19 -95t-55 -86t-86.5 -62.5t-111.5 -24.5q-109 0 -167 65.5t-58 164.5v542h-84v-555zM236 1237l167 -266h97l-168 266h-96z" />
<glyph unicode="&#xfa;" horiz-adv-x="917" d="M119 266q0 -61 20.5 -114.5t59.5 -92.5t96 -61.5t129 -22.5q92 0 165 44t111 116v-135h84v821h-84v-504q0 -47 -19 -95t-55 -86t-86.5 -62.5t-111.5 -24.5q-109 0 -167 65.5t-58 164.5v542h-84v-555zM381 971h96l168 266h-96z" />
<glyph unicode="&#xfb;" horiz-adv-x="917" d="M119 266q0 -61 20.5 -114.5t59.5 -92.5t96 -61.5t129 -22.5q92 0 165 44t111 116v-135h84v821h-84v-504q0 -47 -19 -95t-55 -86t-86.5 -62.5t-111.5 -24.5q-109 0 -167 65.5t-58 164.5v542h-84v-555zM213 971h100l140 174l139 -174h100l-207 254h-65z" />
<glyph unicode="&#xfc;" horiz-adv-x="917" d="M119 266q0 -61 20.5 -114.5t59.5 -92.5t96 -61.5t129 -22.5q92 0 165 44t111 116v-135h84v821h-84v-504q0 -47 -19 -95t-55 -86t-86.5 -62.5t-111.5 -24.5q-109 0 -167 65.5t-58 164.5v542h-84v-555zM246 971h94v172h-94v-172zM565 971h94v172h-94v-172z" />
<glyph unicode="&#xfd;" horiz-adv-x="811" d="M35 821l336 -817l-72 -178q-23 -55 -58.5 -96t-95.5 -41q-29 0 -52 7t-48 23v-81q49 -25 121 -25t122 47t79 121l409 1040h-84l-274 -706l-293 706h-90zM342 991h96l168 266h-96z" />
<glyph unicode="&#xfe;" horiz-adv-x="995" d="M133 -367h84v537q16 -37 46 -73t70 -62.5t89 -43t102 -16.5q82 0 156 30t129 87.5t87 138.5t32 185q0 86 -27 163.5t-76 137t-120.5 94.5t-161.5 35q-55 0 -106.5 -16.5t-94.5 -43t-76 -62.5t-49 -73v844h-84v-1862zM217 408q0 76 23.5 141t66.5 114.5t101.5 77 t128.5 27.5q76 0 132 -29.5t94 -79t57.5 -113.5t19.5 -136q0 -166 -84 -261.5t-224 -95.5q-72 0 -129 30t-99 80t-64.5 113.5t-22.5 131.5z" />
<glyph unicode="&#xff;" horiz-adv-x="811" d="M35 821l336 -817l-72 -178q-23 -55 -58.5 -96t-95.5 -41q-29 0 -52 7t-48 23v-81q49 -25 121 -25t122 47t79 121l409 1040h-84l-274 -706l-293 706h-90zM199 971h94v172h-94v-172zM518 971h94v172h-94v-172z" />
<glyph unicode="&#x152;" horiz-adv-x="2369" d="M92 748q0 -164 57.5 -305.5t157 -245t234.5 -163t290 -59.5q104 0 199.5 28t177.5 78t148.5 120.5t113.5 156.5v-358h795v82h-702v666h598v81h-598v584h663v82h-756v-356q-94 174 -262 277.5t-377 103.5q-156 0 -290.5 -59.5t-234 -163t-157 -245t-57.5 -304.5zM188 748 q0 145 49.5 271t136.5 218t204.5 144.5t252.5 52.5q137 0 254 -52.5t203 -144.5t134 -218t48 -271t-49 -271.5t-135 -218.5t-202.5 -144.5t-252.5 -52.5q-135 0 -252.5 52.5t-204.5 144.5t-136.5 218t-49.5 272z" />
<glyph unicode="&#x153;" d="M68 412q0 -96 32.5 -176t89 -138.5t134 -90.5t168.5 -32q63 0 122.5 17.5t109.5 50.5t88 78t58 98q41 -106 135.5 -175t237.5 -69q66 0 119 13.5t95 35t73 48t53 53.5l-59 51q-57 -59 -121 -91t-156 -32q-80 0 -141.5 26.5t-104.5 76t-65.5 117t-22.5 149.5h689 q-4 80 -27 155.5t-68 135t-113.5 96.5t-162.5 37q-139 0 -232.5 -67.5t-130.5 -168.5q-45 111 -148.5 173.5t-227.5 62.5q-90 0 -168 -32t-134.5 -89t-89 -137t-32.5 -176zM156 412q0 78 24.5 143.5t68.5 112.5t106.5 73.5t136.5 26.5q76 0 138 -26.5t106 -73.5t68.5 -112.5 t24.5 -143.5t-24.5 -143.5t-69.5 -114t-107.5 -75t-135.5 -26.5q-74 0 -136.5 26.5t-106.5 75t-68.5 114t-24.5 143.5zM918 496q8 55 30.5 104t60.5 87t92 59.5t126 21.5q66 0 115 -24.5t82.5 -63.5t52 -88t22.5 -96h-581z" />
<glyph unicode="&#x178;" horiz-adv-x="1286" d="M57 1495l537 -780v-715h92v713l543 782h-105l-479 -696l-481 696h-107zM436 1597h94v172h-94v-172zM756 1597h94v172h-94v-172z" />
<glyph unicode="&#x2c6;" horiz-adv-x="901" d="M211 991h100l140 174l139 -174h100l-207 254h-65z" />
<glyph unicode="&#x2dc;" horiz-adv-x="901" d="M184 991h84q2 39 17.5 61.5t48.5 22.5q23 0 48.5 -12t53.5 -29q31 -18 63.5 -32.5t67.5 -14.5q84 0 115 45t35 117h-84q-2 -39 -17.5 -61.5t-48.5 -22.5q-23 0 -50.5 14.5t-59.5 32.5q-29 16 -60.5 28.5t-62.5 12.5q-84 0 -115 -46t-35 -116z" />
<glyph unicode="&#x2000;" horiz-adv-x="952" />
<glyph unicode="&#x2001;" horiz-adv-x="1905" />
<glyph unicode="&#x2002;" horiz-adv-x="952" />
<glyph unicode="&#x2003;" horiz-adv-x="1905" />
<glyph unicode="&#x2004;" horiz-adv-x="635" />
<glyph unicode="&#x2005;" horiz-adv-x="476" />
<glyph unicode="&#x2006;" horiz-adv-x="317" />
<glyph unicode="&#x2007;" horiz-adv-x="317" />
<glyph unicode="&#x2008;" horiz-adv-x="238" />
<glyph unicode="&#x2009;" horiz-adv-x="381" />
<glyph unicode="&#x200a;" horiz-adv-x="105" />
<glyph unicode="&#x2010;" horiz-adv-x="675" d="M123 422h430v82h-430v-82z" />
<glyph unicode="&#x2011;" horiz-adv-x="675" d="M123 422h430v82h-430v-82z" />
<glyph unicode="&#x2012;" horiz-adv-x="675" d="M123 422h430v82h-430v-82z" />
<glyph unicode="&#x2013;" horiz-adv-x="839" d="M123 422h594v82h-594v-82z" />
<glyph unicode="&#x2014;" horiz-adv-x="1167" d="M123 422h921v82h-921v-82z" />
<glyph unicode="&#x2018;" horiz-adv-x="337" d="M123 1133h92v145q0 59 6 111.5t43 105.5h-57q-39 -43 -61.5 -104.5t-22.5 -116.5v-141z" />
<glyph unicode="&#x2019;" horiz-adv-x="337" d="M74 1133h57q39 43 61.5 104.5t22.5 116.5v141h-92v-145q0 -59 -6 -111.5t-43 -105.5z" />
<glyph unicode="&#x201a;" horiz-adv-x="337" d="M74 -190h57q39 43 61.5 104.5t22.5 116.5v141h-92v-145q0 -59 -6 -111.5t-43 -105.5z" />
<glyph unicode="&#x201c;" horiz-adv-x="573" d="M123 1133h92v145q0 59 6 111.5t43 105.5h-57q-39 -43 -61.5 -104.5t-22.5 -116.5v-141zM358 1133h93v145q0 59 6 111.5t43 105.5h-58q-39 -43 -61.5 -104.5t-22.5 -116.5v-141z" />
<glyph unicode="&#x201d;" horiz-adv-x="573" d="M74 1133h57q39 43 61.5 104.5t22.5 116.5v141h-92v-145q0 -59 -6 -111.5t-43 -105.5zM309 1133h58q39 43 61.5 104.5t22.5 116.5v141h-93v-145q0 -59 -6 -111.5t-43 -105.5z" />
<glyph unicode="&#x201e;" horiz-adv-x="573" d="M74 -190h57q39 43 61.5 104.5t22.5 116.5v141h-92v-145q0 -59 -6 -111.5t-43 -105.5zM309 -190h58q39 43 61.5 104.5t22.5 116.5v141h-93v-145q0 -59 -6 -111.5t-43 -105.5z" />
<glyph unicode="&#x2022;" horiz-adv-x="606" d="M143 776q0 -66 47.5 -113t112.5 -47q66 0 113 47t47 113t-47 113t-113 47t-113 -47t-47 -113z" />
<glyph unicode="&#x2026;" horiz-adv-x="1034" d="M123 0h92v172h-92v-172zM471 0h92v172h-92v-172zM819 0h92v172h-92v-172z" />
<glyph unicode="&#x202f;" horiz-adv-x="381" />
<glyph unicode="&#x2039;" horiz-adv-x="413" d="M41 446l209 -210h104l-200 210l200 211h-104z" />
<glyph unicode="&#x203a;" horiz-adv-x="413" d="M59 236h105l209 210l-209 211h-105l201 -211z" />
<glyph unicode="&#x205f;" horiz-adv-x="476" />
<glyph unicode="&#x20ac;" horiz-adv-x="1243" d="M43 612h166q12 -127 49 -242.5t101.5 -202.5t156.5 -139.5t211 -52.5q152 0 256 65.5t170 182.5l-80 47q-53 -98 -136 -153.5t-206 -55.5q-98 0 -172 46.5t-126 122t-84 174.5t-44 208h461v74h-467q-2 49 0 100h467v74h-463q10 119 41 224.5t84 182t129 122t178 45.5 q117 0 197 -55.5t133 -147.5l82 47q-66 113 -167 177.5t-243 64.5q-125 0 -219 -51.5t-159.5 -140.5t-102.5 -210t-49 -258h-164v-74h160q-2 -49 0 -100h-160v-74z" />
<glyph unicode="&#x2122;" horiz-adv-x="1615" d="M47 1430h221v-832h72v832h219v65h-512v-65zM719 598h72v793l303 -471h36l304 471v-793h71v897h-86l-307 -483l-309 483h-84v-897z" />
<glyph unicode="&#x25fc;" horiz-adv-x="819" d="M0 0v819h819v-819h-819z" />
<glyph unicode="&#xfb01;" horiz-adv-x="765" d="M14 748h144v-748h84v748h151v73h-151v479q0 68 23.5 92.5t64.5 24.5h63v78h-69q-72 0 -119 -42t-47 -138v-494h-144v-73zM549 0h84v821h-84v-821zM549 1051h84v163h-84v-163z" />
<glyph unicode="&#xfb02;" horiz-adv-x="765" d="M14 748h144v-748h84v748h151v73h-151v479q0 68 23.5 92.5t64.5 24.5h63v78h-69q-72 0 -119 -42t-47 -138v-494h-144v-73zM549 0h84v1495h-84v-1495z" />
</font>
</defs>
</svg>
